<svg width="20" height="28" viewBox="0 0 20 28" fill="none" xmlns="http://www.w3.org/2000/svg">
<mask id="mask0_1740_670" style="mask-type:alpha" maskUnits="userSpaceOnUse" x="0" y="0" width="20" height="28">
<path d="M14.9949 19.5963C14.9949 19.4283 14.9039 19.2761 14.7597 19.2C14.7142 19.1763 14.6661 19.1606 14.618 19.1553C14.5675 18.2866 14.3676 17.4468 14.0261 16.6542C13.8946 16.3497 13.6138 16.1476 13.2875 16.1188C13.2901 16.0322 13.2698 15.9429 13.2218 15.8668C13.0472 15.5912 12.8524 15.3235 12.6425 15.0768C12.1973 14.5519 11.5978 14.1871 10.9452 14.0323C10.9325 13.9457 10.8845 13.8696 10.8086 13.8223C9.93592 13.2685 8.9317 12.9825 7.90219 13.0008C7.60877 13.0061 7.31535 13.035 7.02951 13.0874C6.9688 13.0979 6.91568 13.1268 6.87521 13.1688C6.43255 12.9877 5.93676 12.9772 5.48398 13.1426C5.09949 13.2843 4.72513 13.4627 4.37352 13.6753C4.32546 13.7042 4.28246 13.7436 4.24958 13.7908C4.01433 13.6596 3.72344 13.678 3.5059 13.8486C3.33137 13.985 3.16189 14.132 3 14.2869C2.94435 14.2527 2.88111 14.2291 2.81535 14.2212C2.65852 14.2002 2.50422 14.2554 2.39545 14.3761C1.79089 15.0348 1.31029 15.7907 0.968803 16.6227C0.903035 16.6122 0.834739 16.6174 0.768971 16.6358C0.612142 16.6804 0.485666 16.8038 0.430017 16.9639C0.144182 17.809 0 18.6987 0 19.6015C0 20.6802 0.202361 21.7221 0.602024 22.7011C0.589376 22.7063 0.576729 22.7142 0.566611 22.7221C0.381956 22.8402 0.316189 23.0738 0.41231 23.2759C1.06745 24.6721 2.08179 25.8505 3.34401 26.6877C4.64165 27.546 6.14671 28 7.69224 28C9.96121 28 12.1391 27.0027 13.6695 25.2626C13.8111 25.0999 13.8162 24.8611 13.6771 24.6931C13.6669 24.68 13.6543 24.6669 13.6417 24.6537C14.1273 24.0396 14.5219 23.3572 14.8128 22.6197C14.8836 22.4413 14.8331 22.2365 14.6889 22.1132C14.6636 22.0922 14.6358 22.0738 14.6054 22.0581C14.8659 21.2681 15 20.4414 15 19.5963H14.9949ZM7.90978 13.4391C8.67622 13.426 9.43002 13.5966 10.1155 13.9325C10.0776 13.9325 10.0396 13.9299 10.0017 13.9299C9.78162 13.9194 9.55143 13.9063 9.3086 13.8905C8.71669 13.8538 8.15261 13.7278 7.62142 13.5152C7.58347 13.4969 7.543 13.4811 7.50506 13.4627C7.63912 13.4496 7.77319 13.4418 7.90978 13.4391ZM5.6231 13.5599C6.03035 13.4103 6.48061 13.4418 6.86003 13.6465C7.04975 13.7488 7.24199 13.8407 7.43929 13.9194C7.99578 14.174 8.59022 14.3157 9.21501 14.3446C9.48819 14.3577 9.74368 14.3656 9.98904 14.3735C10.1079 14.3787 10.2243 14.384 10.3381 14.3892C11.097 14.4207 11.8204 14.7776 12.3212 15.3682C12.516 15.5965 12.6956 15.8406 12.855 16.0951C12.812 16.0925 12.769 16.0899 12.7234 16.0899C12.4882 16.0794 12.2555 16.0663 12.0177 16.0532C11.8381 16.0453 11.6585 16.0348 11.4789 16.0269C11.3929 16.0217 11.3069 16.019 11.2209 16.0138C10.4165 15.9744 9.59949 15.9351 8.78499 15.9088C8.70911 15.9062 8.63322 15.9009 8.55734 15.8957C8.55481 15.8957 8.54975 15.8957 8.54722 15.8957C8.47133 15.8878 8.39292 15.8799 8.3145 15.8694C8.31197 15.8694 8.30944 15.8694 8.30691 15.8694C7.33811 15.7277 6.2656 15.2527 5.15514 14.4784C5.15261 14.4758 5.15008 14.4732 5.14755 14.4732C5.06155 14.4128 4.97302 14.3498 4.88701 14.2842C4.8769 14.2764 4.86678 14.2711 4.85919 14.2632C4.77825 14.2029 4.69477 14.1399 4.6113 14.0743C4.60624 14.069 4.59865 14.0664 4.59359 14.0611C4.9199 13.8564 5.26644 13.6911 5.6231 13.5599ZM3.75885 14.2002C3.85244 14.1268 3.98398 14.1294 4.08263 14.2081C4.16357 14.2737 4.24199 14.3367 4.32293 14.3997C4.32546 14.3997 4.32546 14.4023 4.32799 14.4023C4.33811 14.4102 4.34823 14.4181 4.35835 14.426C4.38617 14.4469 4.414 14.4679 4.43929 14.4889C4.45953 14.5047 4.47976 14.5204 4.5 14.5362C4.53288 14.5624 4.56577 14.586 4.59865 14.6097C4.6113 14.6202 4.62648 14.6307 4.63912 14.6385C4.6796 14.6674 4.71754 14.6963 4.75801 14.7251C4.76307 14.7304 4.77066 14.733 4.77572 14.7383C5.89629 15.544 6.98904 16.0584 7.99831 16.2579C8.00084 16.2579 8.00084 16.2579 8.00337 16.2579C8.04384 16.2657 8.08685 16.2736 8.12732 16.2815C8.13238 16.2815 8.13997 16.2841 8.14503 16.2841C8.18297 16.2894 8.21838 16.2972 8.25632 16.3025C8.26644 16.3051 8.27909 16.3051 8.28921 16.3077C8.32209 16.313 8.35498 16.3156 8.38533 16.3209C8.40051 16.3235 8.41821 16.3235 8.43339 16.3261C8.46121 16.3287 8.48651 16.3314 8.51433 16.334C8.5371 16.3366 8.56239 16.3366 8.58516 16.3392C8.6054 16.3419 8.6231 16.3419 8.64334 16.3445C8.68634 16.3471 8.72934 16.3497 8.77234 16.3497C9.85244 16.3838 10.9427 16.4416 11.9975 16.4941C12.0734 16.4967 12.1492 16.502 12.2251 16.5046C12.3845 16.5124 12.5413 16.5203 12.6981 16.5282C12.7462 16.5308 12.7968 16.5334 12.8449 16.5361C12.8474 16.5361 12.8499 16.5361 12.8524 16.5361C12.9789 16.5413 13.1079 16.5492 13.2344 16.5544H13.2395C13.4115 16.5623 13.5632 16.6699 13.6315 16.83C13.9705 17.6147 14.1602 18.4493 14.1956 19.3102C14.1804 19.3207 14.1653 19.3338 14.1476 19.3443C14.1324 19.3548 14.1172 19.3653 14.102 19.3758C14.0514 19.4099 14.0034 19.4467 13.9528 19.4808C12.129 20.7327 10.0953 21.2707 8.51433 20.9217C7.543 20.7091 6.79427 20.1815 6.28583 19.3574C5.89882 18.7302 5.47133 18.095 5.05649 17.4809C4.46965 16.6096 3.86003 15.7067 3.34907 14.7934C3.31872 14.7383 3.28583 14.6832 3.25548 14.628C3.4199 14.4811 3.58685 14.3341 3.75885 14.2002ZM2.70152 14.6779C2.71922 14.6569 2.74199 14.6569 2.75717 14.6569C2.76981 14.6595 2.79258 14.6648 2.80523 14.6884L2.81029 14.6963C2.83558 14.7435 2.86341 14.7934 2.89123 14.8433L2.89376 14.8459C2.92411 14.9036 2.957 14.9614 2.98988 15.0191C3.51096 15.9482 4.1231 16.8563 4.71754 17.7381C5.07673 18.2709 5.44857 18.822 5.79005 19.3653C5.83811 19.444 5.8887 19.5202 5.93423 19.5989C6.49831 20.5149 7.36341 21.1237 8.43339 21.3599C8.48145 21.3704 8.53204 21.3809 8.5801 21.3888C8.59528 21.3914 8.61298 21.3941 8.62816 21.3967C8.66105 21.4019 8.69646 21.4072 8.72934 21.4124C8.74705 21.4151 8.76728 21.4177 8.78499 21.4203C8.81787 21.4256 8.85076 21.4282 8.88617 21.4334C8.90388 21.4361 8.92158 21.4387 8.93929 21.4387C8.97723 21.4439 9.01771 21.4466 9.05565 21.4492C9.0683 21.4492 9.08094 21.4518 9.09359 21.4518C9.14418 21.4544 9.19477 21.4597 9.24536 21.4623C9.26307 21.4623 9.28078 21.4623 9.29848 21.4649C9.3339 21.4676 9.36931 21.4676 9.40472 21.4676C9.42496 21.4676 9.44772 21.4676 9.46796 21.4676C9.48314 21.4676 9.50084 21.4676 9.51602 21.4676C9.52361 21.4676 9.53373 21.4676 9.54132 21.4676C9.62479 21.4676 9.70573 21.4649 9.78921 21.4623C9.7968 21.4623 9.80185 21.4623 9.80944 21.4623C9.88786 21.4571 9.9688 21.4518 10.0497 21.4466C10.0649 21.4439 10.0801 21.4439 10.0953 21.4413C10.1788 21.4334 10.2622 21.4229 10.3482 21.4124C10.3634 21.4098 10.3786 21.4072 10.3938 21.4072C10.4747 21.3967 10.5531 21.3836 10.6341 21.3678C10.6442 21.3652 10.6518 21.3652 10.6619 21.3626C10.7479 21.3468 10.8339 21.3285 10.9224 21.3101C10.9401 21.3075 10.9578 21.3022 10.9755 21.297C11.0641 21.276 11.1501 21.255 11.2386 21.234C11.2437 21.234 11.2487 21.2313 11.2538 21.2287C11.3373 21.2051 11.4233 21.1815 11.5093 21.1579C11.527 21.1526 11.5447 21.1474 11.5624 21.1421C11.6484 21.1159 11.7369 21.087 11.8229 21.0581C11.8381 21.0529 11.8533 21.0476 11.8685 21.0424C11.9494 21.0135 12.0304 20.9846 12.1113 20.9531C12.1239 20.9479 12.1366 20.9453 12.1467 20.94C12.2327 20.9059 12.3212 20.8718 12.4073 20.835C12.4275 20.8272 12.4452 20.8193 12.4654 20.8114C12.554 20.7747 12.6425 20.7353 12.731 20.6933C12.7336 20.6907 12.7386 20.6907 12.7411 20.6881C12.8272 20.6487 12.9132 20.6067 12.9966 20.5621C13.0143 20.5516 13.0346 20.5437 13.0523 20.5332C13.1383 20.4886 13.2243 20.444 13.3078 20.3967C13.3229 20.3889 13.3381 20.3784 13.3558 20.3705C13.4342 20.3285 13.5101 20.2839 13.586 20.2393C13.6012 20.2314 13.6164 20.2235 13.629 20.213C13.7125 20.1632 13.7985 20.1107 13.882 20.0582C13.9022 20.0451 13.9199 20.0346 13.9401 20.0214C14.0236 19.9663 14.1071 19.9112 14.1906 19.8561C14.1931 19.8561 14.1931 19.8535 14.1956 19.8535C14.2487 19.8167 14.3019 19.78 14.3524 19.7432C14.3676 19.7327 14.3853 19.7196 14.4005 19.7091C14.4182 19.696 14.4359 19.6855 14.4536 19.6724C14.4562 19.6698 14.4587 19.6671 14.4612 19.6671C14.489 19.6461 14.5169 19.6251 14.5447 19.6041L14.5599 19.5936C14.5649 19.5884 14.57 19.5936 14.57 19.5963V19.6015C14.57 20.4466 14.4309 21.2707 14.1526 22.0554H14.0868V22.1578C13.9452 22.2523 13.801 22.3415 13.6568 22.4281C13.4874 22.5279 13.3103 22.6276 13.1256 22.7221C10.7656 23.9399 7.81113 24.3519 6.09865 23.7037C5.47386 23.4674 5.05649 23.1079 4.85919 22.6355C3.68803 19.8298 2.85835 18.3785 1.79848 17.2814C1.70742 17.187 1.61383 17.0925 1.51771 17.0059C1.46459 16.956 1.41147 16.9061 1.35329 16.8563C1.34823 16.851 1.34317 16.8458 1.33811 16.8431C1.66189 16.0374 2.11973 15.3104 2.70152 14.6779ZM0.82715 17.1082C0.837268 17.0767 0.862563 17.0636 0.87774 17.061C0.890388 17.0584 0.918212 17.0531 0.943508 17.0767C0.986509 17.1135 1.02698 17.1502 1.06998 17.187C1.1231 17.2342 1.17622 17.2841 1.22934 17.3313C1.31788 17.4153 1.40894 17.5019 1.49494 17.5938C2.51433 18.6462 3.31872 20.0608 4.46712 22.8087C4.71248 23.3966 5.21079 23.8375 5.95194 24.1157C6.55143 24.344 7.2774 24.4516 8.06914 24.4516C9.70826 24.4516 11.6332 23.9818 13.3153 23.1131C13.5051 23.016 13.6922 22.911 13.8668 22.8087C13.9503 22.7588 14.0363 22.7063 14.1172 22.6538C14.1248 22.6486 14.1298 22.646 14.1374 22.6407C14.2133 22.5935 14.2892 22.5436 14.3626 22.4937H14.3929C14.0767 23.2811 13.6366 24.0028 13.0852 24.6406C13.0472 24.6669 13.0118 24.6905 12.9739 24.7141C12.9536 24.7272 12.9359 24.7403 12.9157 24.7535C12.8752 24.7797 12.8347 24.806 12.7943 24.8322C12.774 24.8453 12.7513 24.8584 12.731 24.8716C12.6906 24.8952 12.6526 24.9214 12.6121 24.9451C12.5894 24.9582 12.5666 24.9739 12.5438 24.987C12.5059 25.0107 12.4654 25.0317 12.4275 25.0553C12.4022 25.0684 12.3794 25.0842 12.3541 25.0973C12.3162 25.1183 12.2782 25.1393 12.2403 25.1603C12.215 25.1734 12.1897 25.1891 12.1644 25.2023C12.1265 25.2233 12.086 25.2442 12.0481 25.2652C12.0228 25.2784 12 25.2915 11.9747 25.3046C11.9317 25.3256 11.8912 25.3466 11.8482 25.3676C11.8255 25.3781 11.8052 25.3886 11.7825 25.4017C11.7192 25.4332 11.656 25.4647 11.5902 25.4936H11.5422L11.5093 25.5303C11.4334 25.5644 11.3575 25.5986 11.2816 25.6327C11.2487 25.6458 11.2159 25.6589 11.183 25.6747C11.14 25.693 11.097 25.7114 11.0514 25.7272C11.0084 25.7429 10.968 25.7587 10.925 25.777C10.8895 25.7901 10.8567 25.8033 10.8212 25.8164C10.7757 25.8348 10.7277 25.8505 10.6821 25.8663C10.6518 25.8768 10.6214 25.8873 10.5911 25.8978C10.543 25.9135 10.4975 25.9292 10.4494 25.945C10.4191 25.9555 10.3887 25.966 10.3583 25.9739C10.3128 25.987 10.2673 26.0027 10.2192 26.0159C10.1889 26.0237 10.156 26.0342 10.1256 26.0447C10.0826 26.0579 10.0396 26.0683 9.9941 26.0788C9.96121 26.0867 9.9258 26.0972 9.89292 26.1051C9.85244 26.1156 9.81197 26.1235 9.77403 26.134C9.73609 26.1418 9.69815 26.1523 9.6602 26.1602C9.62479 26.1681 9.58938 26.176 9.55143 26.1838C9.50843 26.1917 9.46796 26.2022 9.42496 26.2101C9.39207 26.2153 9.36172 26.2206 9.32884 26.2284C9.28331 26.2363 9.23524 26.2468 9.18971 26.2547C9.16189 26.2599 9.13153 26.2626 9.10371 26.2678C9.05312 26.2757 9.00506 26.2836 8.95447 26.2914C8.92917 26.2941 8.90388 26.2967 8.87605 26.3019C8.82293 26.3098 8.76981 26.3151 8.71922 26.3203C8.69393 26.3229 8.67116 26.3256 8.64587 26.3282C8.59275 26.3334 8.5371 26.3387 8.48398 26.3439C8.45868 26.3465 8.43339 26.3465 8.41062 26.3492C8.3575 26.3518 8.30439 26.357 8.25127 26.3597C8.22344 26.3623 8.19562 26.3623 8.16779 26.3623C8.11973 26.3649 8.06914 26.3675 8.02108 26.3675C7.98567 26.3675 7.95278 26.3675 7.91737 26.3702C7.87437 26.3702 7.83137 26.3702 7.78836 26.3702H7.76054C7.66695 26.3702 7.57083 26.3675 7.47723 26.3623C7.43929 26.3597 7.40135 26.357 7.36341 26.3544C7.30523 26.3518 7.24705 26.3492 7.18887 26.3439C7.14587 26.3413 7.1054 26.3361 7.06239 26.3308C7.00927 26.3256 6.95615 26.3203 6.90304 26.3151C6.8575 26.3098 6.8145 26.3019 6.76897 26.2967C6.71838 26.2888 6.66526 26.2836 6.61467 26.2757L6.58685 26.2704C6.17454 26.2074 5.75717 26.1077 5.34739 25.9739C5.22597 25.9345 5.10455 25.8925 4.98567 25.8479C4.86678 25.8033 4.74789 25.7534 4.63153 25.7035C4.57336 25.6773 4.51518 25.651 4.457 25.6248C3.82209 25.3309 3.2226 24.9503 2.66863 24.4936L2.65852 24.4858C2.58769 24.428 2.51939 24.3677 2.44857 24.3073C2.4258 24.2889 2.40556 24.2679 2.3828 24.2469C2.33727 24.2049 2.28921 24.1629 2.24368 24.1209C2.21838 24.0973 2.19309 24.0711 2.16779 24.0475C2.12732 24.0081 2.08432 23.9687 2.04384 23.9267C2.01602 23.8979 1.9882 23.869 1.96037 23.8428C1.92243 23.8034 1.88449 23.7666 1.84907 23.7273C1.81872 23.6958 1.79089 23.6643 1.76307 23.6328C1.72766 23.596 1.69477 23.5593 1.65936 23.5199C1.62901 23.4858 1.60118 23.4517 1.57083 23.4176C1.53794 23.3808 1.50759 23.3441 1.4747 23.3073C1.44435 23.2706 1.414 23.2339 1.38364 23.1971C1.35329 23.1604 1.32546 23.1236 1.29511 23.0869C1.26476 23.0475 1.2344 23.0082 1.20405 22.9662C1.17875 22.932 1.15346 22.8979 1.12816 22.8638C0.655143 21.8429 0.417369 20.7484 0.417369 19.6068C0.422428 18.7459 0.559022 17.9061 0.82715 17.1082ZM7.68718 27.5565C4.77319 27.5565 2.16526 25.8925 0.847386 23.1997C0.870152 23.2286 0.892917 23.2575 0.915683 23.2864C0.943508 23.3231 0.971332 23.3572 0.999157 23.394C1.03204 23.4359 1.06492 23.4753 1.09781 23.5173C1.12563 23.5514 1.15346 23.5855 1.18128 23.6197C1.21417 23.6617 1.24958 23.701 1.28499 23.7404C1.31282 23.7719 1.34064 23.806 1.36847 23.8375C1.40388 23.8769 1.43929 23.9162 1.47723 23.9556C1.50506 23.9871 1.53288 24.0186 1.56324 24.0475C1.60118 24.0868 1.63912 24.1262 1.67707 24.1629C1.70489 24.1918 1.73524 24.2233 1.76307 24.2522C1.80354 24.2915 1.84148 24.3283 1.88196 24.3677C1.90978 24.3939 1.93761 24.4228 1.96543 24.449C2.00843 24.491 2.05396 24.5304 2.09696 24.5697C2.12226 24.5934 2.14755 24.617 2.17285 24.638C2.24368 24.701 2.3145 24.7613 2.38533 24.8191L2.39545 24.8269C3.24536 25.5329 4.19646 26.0578 5.22344 26.3938C5.65346 26.5329 6.09106 26.6379 6.52867 26.7061C6.53626 26.7087 6.54385 26.7087 6.55143 26.7087C6.58432 26.714 6.61973 26.7192 6.65514 26.7245C6.71585 26.735 6.77403 26.7429 6.83474 26.7507C6.88027 26.756 6.9258 26.7612 6.97133 26.7665C7.02192 26.7717 7.07504 26.777 7.12563 26.7822C7.17622 26.7875 7.22681 26.7875 7.2774 26.7927C7.32546 26.7953 7.371 26.798 7.41906 26.8006C7.46965 26.8032 7.51771 26.8032 7.5683 26.8032C7.60877 26.8032 7.64924 26.8058 7.68718 26.8058C7.70236 26.8058 7.72007 26.8058 7.73524 26.8058C7.73777 26.8058 7.74283 26.8058 7.74536 26.8058L7.77319 26.8137L7.80101 26.8058C7.8086 26.8058 7.81619 26.8058 7.82378 26.8058C9.12142 26.8058 10.4216 26.5119 11.6863 25.9345H11.7344L11.7673 25.8978C11.8331 25.8663 11.8988 25.8374 11.9621 25.8033C11.9848 25.7928 12.0076 25.7797 12.0278 25.7692C12.0708 25.7482 12.1138 25.7272 12.1568 25.7035C12.1847 25.6904 12.2099 25.6747 12.2378 25.6615C12.2757 25.6406 12.3137 25.6222 12.3516 25.6012C12.3794 25.5854 12.4073 25.5697 12.4351 25.5539C12.4705 25.5329 12.5084 25.5146 12.5438 25.4936C12.5717 25.4778 12.602 25.4595 12.6298 25.4437C12.6653 25.4227 12.7007 25.4017 12.7361 25.3807C12.7639 25.3624 12.7943 25.3466 12.8221 25.3282C12.8575 25.3072 12.8904 25.2862 12.9258 25.2652C12.9536 25.2469 12.984 25.2285 13.0118 25.2101C13.0472 25.1891 13.0801 25.1681 13.113 25.1445C13.1408 25.1261 13.1712 25.1051 13.199 25.0868C13.2243 25.0684 13.2521 25.0527 13.2774 25.0343C11.8331 26.6405 9.80185 27.5565 7.68718 27.5565Z" fill="#969696"/>
<path d="M19.9963 4.83726C19.9963 4.71408 19.9295 4.60246 19.8238 4.54664C19.7904 4.52932 19.7551 4.51777 19.7199 4.51392C19.6828 3.87686 19.5363 3.26097 19.2858 2.67973C19.1894 2.45647 18.9835 2.30827 18.7442 2.2871C18.746 2.22358 18.7312 2.15815 18.696 2.10233C18.568 1.90024 18.4251 1.70393 18.2712 1.52301C17.9447 1.13808 17.5051 0.870553 17.0265 0.756999C17.0172 0.693485 16.982 0.63767 16.9263 0.603027C16.2863 0.196925 15.5499 -0.0128621 14.7949 0.000610492C14.5798 0.0044598 14.3646 0.025631 14.155 0.0641241C14.1105 0.0718227 14.0715 0.0929938 14.0418 0.123788C13.7172 -0.00901275 13.3536 -0.0167113 13.0216 0.104542C12.7396 0.208473 12.4651 0.339349 12.2073 0.495246C12.172 0.516417 12.1405 0.545287 12.1164 0.579931C11.9438 0.483698 11.7305 0.497171 11.571 0.622273C11.443 0.722355 11.3187 0.830136 11.2 0.94369C11.1592 0.91867 11.1128 0.901348 11.0646 0.895574C10.9496 0.880177 10.8364 0.920595 10.7567 1.00913C10.3133 1.49222 9.96088 2.04652 9.71046 2.65663C9.66223 2.64893 9.61214 2.65278 9.56391 2.66625C9.4489 2.69897 9.35616 2.78943 9.31535 2.90684C9.10573 3.52657 9 4.17903 9 4.84111C9 5.63214 9.1484 6.39623 9.44148 7.11413C9.43221 7.11798 9.42293 7.12375 9.41551 7.12952C9.2801 7.21613 9.23187 7.38743 9.30236 7.53563C9.7828 8.55954 10.5266 9.42371 11.4523 10.0377C12.4039 10.667 13.5076 11 14.641 11C16.3049 11 17.902 10.2686 19.0243 8.99259C19.1282 8.87326 19.1319 8.69812 19.0298 8.57494C19.0224 8.56531 19.0132 8.55569 19.0039 8.54607C19.36 8.0957 19.6494 7.59529 19.8627 7.05446C19.9147 6.92359 19.8776 6.77346 19.7718 6.683C19.7533 6.66761 19.7329 6.65413 19.7106 6.64259C19.9017 6.06327 20 5.457 20 4.83726H19.9963ZM14.8005 0.322027C15.3626 0.312404 15.9153 0.437507 16.418 0.683862C16.3902 0.683862 16.3624 0.681938 16.3346 0.681938C16.1732 0.674239 16.0044 0.664616 15.8263 0.653068C15.3922 0.626123 14.9786 0.533739 14.589 0.377842C14.5612 0.36437 14.5315 0.352822 14.5037 0.339349C14.602 0.329726 14.7003 0.323952 14.8005 0.322027ZM13.1236 0.410561C13.4223 0.300856 13.7524 0.323952 14.0307 0.474075C14.1698 0.549137 14.3108 0.616499 14.4555 0.674239C14.8636 0.86093 15.2995 0.964861 15.7577 0.986033C15.958 0.995656 16.1454 1.00143 16.3253 1.0072C16.4125 1.01105 16.4978 1.0149 16.5813 1.01875C17.1378 1.04185 17.6683 1.3036 18.0356 1.73665C18.1784 1.90409 18.3101 2.08308 18.427 2.26978C18.3954 2.26785 18.3639 2.26593 18.3305 2.26593C18.158 2.25823 17.9874 2.2486 17.813 2.23898C17.6813 2.23321 17.5496 2.22551 17.4179 2.21974C17.3548 2.21589 17.2917 2.21396 17.2287 2.21011C16.6388 2.18124 16.0396 2.15237 15.4423 2.13313C15.3867 2.1312 15.331 2.12735 15.2754 2.1235C15.2735 2.1235 15.2698 2.1235 15.268 2.1235C15.2123 2.11773 15.1548 2.11195 15.0973 2.10426C15.0954 2.10426 15.0936 2.10426 15.0917 2.10426C14.3813 2.00032 13.5948 1.65196 12.7804 1.08419C12.7786 1.08227 12.7767 1.08034 12.7749 1.08034C12.7118 1.03607 12.6469 0.989882 12.5838 0.941766C12.5764 0.935992 12.569 0.932142 12.5634 0.926368C12.504 0.882101 12.4428 0.83591 12.3816 0.787793C12.3779 0.783944 12.3723 0.78202 12.3686 0.77817C12.6079 0.628047 12.8621 0.506794 13.1236 0.410561ZM11.7565 0.880177C11.8251 0.826287 11.9216 0.828211 11.9939 0.885951C12.0533 0.934067 12.1108 0.980259 12.1702 1.02645C12.172 1.02645 12.172 1.02838 12.1739 1.02838C12.1813 1.03415 12.1887 1.03992 12.1961 1.0457C12.2165 1.06109 12.2369 1.07649 12.2555 1.09189C12.2703 1.10344 12.2852 1.11498 12.3 1.12653C12.3241 1.14578 12.3482 1.1631 12.3723 1.18042C12.3816 1.18812 12.3927 1.19582 12.402 1.20159C12.4317 1.22277 12.4595 1.24394 12.4892 1.26511C12.4929 1.26896 12.4985 1.27088 12.5022 1.27473C13.3239 1.8656 14.1253 2.24283 14.8654 2.3891C14.8673 2.3891 14.8673 2.3891 14.8691 2.3891C14.8988 2.39488 14.9304 2.40065 14.96 2.40643C14.9637 2.40643 14.9693 2.40835 14.973 2.40835C15.0008 2.4122 15.0268 2.41797 15.0546 2.42182C15.0621 2.42375 15.0713 2.42375 15.0788 2.42567C15.1029 2.42952 15.127 2.43145 15.1492 2.4353C15.1604 2.43722 15.1734 2.43722 15.1845 2.43915C15.2049 2.44107 15.2234 2.44299 15.2438 2.44492C15.2605 2.44684 15.2791 2.44684 15.2958 2.44877C15.3106 2.45069 15.3236 2.45069 15.3384 2.45262C15.37 2.45454 15.4015 2.45647 15.4331 2.45647C16.2251 2.48149 17.0246 2.52383 17.7981 2.56232C17.8538 2.56425 17.9094 2.5681 17.9651 2.57002C18.082 2.5758 18.197 2.58157 18.312 2.58734C18.3472 2.58927 18.3843 2.59119 18.4196 2.59312C18.4214 2.59312 18.4233 2.59312 18.4251 2.59312C18.5179 2.59697 18.6125 2.60274 18.7052 2.60659H18.7089C18.8351 2.61236 18.9464 2.69127 18.9965 2.80868C19.245 3.38415 19.3841 3.99619 19.4101 4.62748C19.399 4.63517 19.3879 4.6448 19.3749 4.6525C19.3637 4.66019 19.3526 4.66789 19.3415 4.67559C19.3044 4.70061 19.2691 4.72756 19.232 4.75258C17.8946 5.67064 16.4032 6.06519 15.2438 5.80921C14.5315 5.65332 13.9825 5.26646 13.6096 4.66212C13.3258 4.20213 13.0123 3.73636 12.7081 3.28599C12.2777 2.64701 11.8307 1.98493 11.456 1.31515C11.4337 1.27473 11.4096 1.23431 11.3874 1.1939C11.5079 1.08611 11.6304 0.978334 11.7565 0.880177ZM10.9811 1.23046C10.9941 1.21507 11.0108 1.21507 11.0219 1.21507C11.0312 1.21699 11.0479 1.22084 11.0572 1.23816L11.0609 1.24394C11.0794 1.27858 11.0998 1.31515 11.1202 1.35172L11.1221 1.35364C11.1444 1.39598 11.1685 1.43833 11.1926 1.48067C11.5747 2.162 12.0236 2.82793 12.4595 3.47461C12.7229 3.86531 12.9956 4.26949 13.246 4.66789C13.2813 4.72563 13.3184 4.78145 13.3518 4.83919C13.7654 5.51089 14.3998 5.95741 15.1845 6.13063C15.2197 6.13833 15.2568 6.14603 15.2921 6.1518C15.3032 6.15372 15.3162 6.15565 15.3273 6.15757C15.3514 6.16142 15.3774 6.16527 15.4015 6.16912C15.4145 6.17105 15.4293 6.17297 15.4423 6.1749C15.4664 6.17875 15.4906 6.18067 15.5165 6.18452C15.5295 6.18644 15.5425 6.18837 15.5555 6.18837C15.5833 6.19222 15.613 6.19414 15.6408 6.19607C15.6501 6.19607 15.6594 6.19799 15.6686 6.19799C15.7057 6.19992 15.7428 6.20377 15.7799 6.20569C15.7929 6.20569 15.8059 6.20569 15.8189 6.20761C15.8449 6.20954 15.8708 6.20954 15.8968 6.20954C15.9116 6.20954 15.9283 6.20954 15.9432 6.20954C15.9543 6.20954 15.9673 6.20954 15.9784 6.20954C15.984 6.20954 15.9914 6.20954 15.997 6.20954C16.0582 6.20954 16.1175 6.20762 16.1788 6.20569C16.1843 6.20569 16.188 6.20569 16.1936 6.20569C16.2511 6.20184 16.3105 6.19799 16.3698 6.19414C16.3809 6.19222 16.3921 6.19222 16.4032 6.19029C16.4644 6.18452 16.5256 6.17682 16.5887 6.16912C16.5998 6.1672 16.611 6.16527 16.6221 6.16527C16.6815 6.15757 16.739 6.14795 16.7983 6.1364C16.8057 6.13448 16.8113 6.13448 16.8187 6.13255C16.8818 6.12101 16.9449 6.10753 17.0098 6.09406C17.0228 6.09214 17.0358 6.08829 17.0487 6.08444C17.1137 6.06904 17.1767 6.05364 17.2417 6.03825C17.2454 6.03825 17.2491 6.03632 17.2528 6.0344C17.314 6.01707 17.3771 5.99975 17.4401 5.98243C17.4531 5.97858 17.4661 5.97473 17.4791 5.97088C17.5422 5.95164 17.6071 5.93047 17.6702 5.90929C17.6813 5.90544 17.6924 5.9016 17.7035 5.89775C17.7629 5.87657 17.8223 5.8554 17.8816 5.83231C17.8909 5.82846 17.9002 5.82653 17.9076 5.82268C17.9707 5.79766 18.0356 5.77264 18.0987 5.7457C18.1135 5.73992 18.1265 5.73415 18.1413 5.72838C18.2062 5.70143 18.2712 5.67256 18.3361 5.64177C18.3379 5.63984 18.3417 5.63984 18.3435 5.63792C18.4066 5.60905 18.4696 5.57825 18.5309 5.54553C18.5438 5.53784 18.5587 5.53206 18.5717 5.52436C18.6347 5.49164 18.6978 5.45893 18.759 5.42428C18.7702 5.41851 18.7813 5.41081 18.7943 5.40503C18.8518 5.37424 18.9074 5.34152 18.9631 5.3088C18.9742 5.30303 18.9853 5.29725 18.9946 5.28956C19.0558 5.25299 19.1189 5.21449 19.1801 5.176C19.1949 5.16638 19.2079 5.15868 19.2228 5.14906C19.284 5.10864 19.3452 5.06822 19.4064 5.0278C19.4083 5.0278 19.4083 5.02588 19.4101 5.02588C19.4491 4.99893 19.488 4.97199 19.5251 4.94504C19.5363 4.93734 19.5492 4.92772 19.5604 4.92002C19.5734 4.9104 19.5863 4.9027 19.5993 4.89308C19.6012 4.89115 19.603 4.88923 19.6049 4.88923C19.6253 4.87383 19.6457 4.85843 19.6661 4.84304L19.6772 4.83534C19.6809 4.83149 19.6847 4.83534 19.6847 4.83726V4.84111C19.6847 5.46085 19.5826 6.06519 19.3786 6.64066H19.3304V6.71572C19.2265 6.78501 19.1207 6.85045 19.015 6.91396C18.8907 6.9871 18.7609 7.06024 18.6255 7.12952C16.8948 8.02256 14.7282 8.32473 13.4723 7.84934C13.0142 7.67612 12.7081 7.41245 12.5634 7.06601C11.7046 5.00856 11.0961 3.94422 10.3189 3.13972C10.2521 3.07043 10.1835 3.00114 10.113 2.93763C10.074 2.90106 10.0351 2.86449 9.99241 2.82793C9.9887 2.82408 9.98499 2.82023 9.98128 2.8183C10.2187 2.22743 10.5545 1.6943 10.9811 1.23046ZM9.60658 3.01269C9.614 2.9896 9.63255 2.97997 9.64368 2.97805C9.65295 2.97612 9.67336 2.97227 9.69191 2.9896C9.72344 3.01654 9.75312 3.04349 9.78465 3.07043C9.82361 3.10508 9.86256 3.14164 9.90152 3.17629C9.96644 3.23788 10.0332 3.30139 10.0963 3.36875C10.8438 4.14054 11.4337 5.17793 12.2759 7.19304C12.4558 7.62416 12.8212 7.9475 13.3648 8.15151C13.8044 8.31896 14.3368 8.39787 14.9174 8.39787C16.1194 8.39787 17.531 8.05336 18.7646 7.4163C18.9037 7.34508 19.041 7.2681 19.169 7.19304C19.2302 7.15647 19.2933 7.11798 19.3526 7.07948C19.3582 7.07563 19.3619 7.07371 19.3675 7.06986C19.4231 7.03522 19.4788 6.99865 19.5325 6.96208H19.5548C19.3229 7.53947 19.0002 8.06875 18.5958 8.53644C18.568 8.55569 18.542 8.57301 18.5142 8.59033C18.4993 8.59996 18.4863 8.60958 18.4715 8.6192C18.4418 8.63845 18.4121 8.6577 18.3825 8.67694C18.3676 8.68657 18.3509 8.69619 18.3361 8.70581C18.3064 8.72314 18.2786 8.74238 18.2489 8.7597C18.2322 8.76933 18.2155 8.78088 18.1988 8.7905C18.171 8.80782 18.1413 8.82322 18.1135 8.84054C18.0949 8.85016 18.0782 8.86171 18.0597 8.87133C18.0319 8.88673 18.004 8.90213 17.9762 8.91753C17.9577 8.92715 17.9391 8.9387 17.9206 8.94832C17.8927 8.96372 17.8631 8.97911 17.8352 8.99451C17.8167 9.00413 17.8 9.01376 17.7815 9.02338C17.7499 9.03878 17.7202 9.05418 17.6887 9.06957C17.672 9.07727 17.6572 9.08497 17.6405 9.09459C17.5941 9.11769 17.5477 9.14079 17.4995 9.16196H17.4643L17.4401 9.1889C17.3845 9.21392 17.3288 9.23894 17.2732 9.26396C17.2491 9.27359 17.225 9.28321 17.2008 9.29476C17.1693 9.30823 17.1378 9.3217 17.1044 9.33325C17.0729 9.3448 17.0432 9.35635 17.0116 9.36982C16.9857 9.37944 16.9616 9.38907 16.9356 9.39869C16.9022 9.41216 16.8669 9.42371 16.8336 9.43526C16.8113 9.44296 16.789 9.45065 16.7668 9.45835C16.7315 9.4699 16.6981 9.48145 16.6629 9.493C16.6406 9.5007 16.6184 9.50839 16.5961 9.51417C16.5627 9.52379 16.5293 9.53534 16.4941 9.54496C16.4718 9.55074 16.4477 9.55844 16.4255 9.56613C16.3939 9.57576 16.3624 9.58346 16.329 9.59115C16.3049 9.59693 16.2789 9.60463 16.2548 9.6104C16.2251 9.6181 16.1954 9.62387 16.1676 9.63157C16.1398 9.63735 16.112 9.64504 16.0841 9.65082C16.0582 9.65659 16.0322 9.66237 16.0044 9.66814C15.9729 9.67391 15.9432 9.68161 15.9116 9.68739C15.8875 9.69124 15.8653 9.69509 15.8411 9.70086C15.8078 9.70663 15.7725 9.71433 15.7391 9.72011C15.7187 9.72396 15.6965 9.72588 15.6761 9.72973C15.639 9.7355 15.6037 9.74128 15.5666 9.74705C15.5481 9.74898 15.5295 9.7509 15.5091 9.75475C15.4702 9.76052 15.4312 9.76437 15.3941 9.76822C15.3755 9.77015 15.3589 9.77207 15.3403 9.774C15.3013 9.77785 15.2605 9.78169 15.2216 9.78554C15.203 9.78747 15.1845 9.78747 15.1678 9.78939C15.1288 9.79132 15.0899 9.79517 15.0509 9.79709C15.0305 9.79902 15.0101 9.79902 14.9897 9.79902C14.9545 9.80094 14.9174 9.80287 14.8821 9.80287C14.8562 9.80287 14.832 9.80287 14.8061 9.80479C14.7745 9.80479 14.743 9.80479 14.7115 9.80479H14.6911C14.6224 9.80479 14.5519 9.80287 14.4833 9.79902C14.4555 9.79709 14.4277 9.79517 14.3998 9.79324C14.3572 9.79132 14.3145 9.78939 14.2718 9.78554C14.2403 9.78362 14.2106 9.77977 14.1791 9.77592C14.1401 9.77207 14.1012 9.76822 14.0622 9.76437C14.0288 9.76052 13.9973 9.75475 13.9639 9.7509C13.9268 9.74513 13.8879 9.74128 13.8508 9.7355L13.8304 9.73165C13.528 9.68546 13.2219 9.61233 12.9214 9.51417C12.8324 9.4853 12.7433 9.4545 12.6562 9.42178C12.569 9.38907 12.4818 9.3525 12.3965 9.31593C12.3538 9.29668 12.3111 9.27744 12.2685 9.25819C11.8029 9.04263 11.3632 8.76355 10.957 8.42866L10.9496 8.42289C10.8976 8.38055 10.8476 8.33628 10.7956 8.29201C10.7789 8.27854 10.7641 8.26314 10.7474 8.24775C10.714 8.21695 10.6788 8.18616 10.6454 8.15536C10.6268 8.13804 10.6083 8.11879 10.5897 8.10147C10.56 8.0726 10.5285 8.04373 10.4988 8.01294C10.4784 7.99177 10.458 7.9706 10.4376 7.95135C10.4098 7.92248 10.382 7.89553 10.356 7.86667C10.3337 7.84357 10.3133 7.82047 10.2929 7.79738C10.2669 7.77043 10.2428 7.74349 10.2169 7.71462C10.1946 7.6896 10.1742 7.66458 10.1519 7.63956C10.1278 7.61261 10.1056 7.58567 10.0815 7.55872C10.0592 7.53178 10.0369 7.50483 10.0147 7.47789C9.99241 7.45094 9.97201 7.424 9.94975 7.39705C9.92749 7.36818 9.90523 7.33931 9.88297 7.30852C9.86442 7.2835 9.84587 7.25848 9.82732 7.23345C9.48044 6.48477 9.30607 5.68218 9.30607 4.84496C9.30978 4.21368 9.40995 3.59779 9.60658 3.01269ZM14.6373 10.6747C12.5003 10.6747 10.5879 9.4545 9.62142 7.47981C9.63811 7.50098 9.65481 7.52215 9.6715 7.54332C9.69191 7.57027 9.71231 7.59529 9.73272 7.62223C9.75683 7.65303 9.78094 7.6819 9.80506 7.71269C9.82546 7.73771 9.84587 7.76273 9.86627 7.78775C9.89039 7.81855 9.91636 7.84742 9.94233 7.87629C9.96273 7.89938 9.98314 7.92441 10.0035 7.9475C10.0295 7.97637 10.0555 8.00524 10.0833 8.03411C10.1037 8.05721 10.1241 8.0803 10.1464 8.10147C10.1742 8.13034 10.202 8.15921 10.2298 8.18616C10.2503 8.20733 10.2725 8.23042 10.2929 8.2516C10.3226 8.28047 10.3504 8.30741 10.3801 8.33628C10.4005 8.35553 10.4209 8.3767 10.4413 8.39594C10.4729 8.42674 10.5062 8.45561 10.5378 8.48448C10.5563 8.5018 10.5749 8.51912 10.5934 8.53452C10.6454 8.58071 10.6973 8.62498 10.7492 8.66732L10.7567 8.6731C11.3799 9.19083 12.0774 9.57576 12.8305 9.82211C13.1459 9.92412 13.4668 10.0011 13.7877 10.0511C13.7933 10.0531 13.7988 10.0531 13.8044 10.0531C13.8285 10.0569 13.8545 10.0608 13.8804 10.0646C13.925 10.0723 13.9676 10.0781 14.0121 10.0839C14.0455 10.0877 14.0789 10.0916 14.1123 10.0954C14.1494 10.0993 14.1884 10.1031 14.2255 10.107C14.2626 10.1108 14.2997 10.1108 14.3368 10.1147C14.372 10.1166 14.4054 10.1185 14.4406 10.1204C14.4777 10.1224 14.513 10.1224 14.5501 10.1224C14.5798 10.1224 14.6094 10.1243 14.6373 10.1243C14.6484 10.1243 14.6614 10.1243 14.6725 10.1243C14.6744 10.1243 14.6781 10.1243 14.6799 10.1243L14.7003 10.1301L14.7207 10.1243C14.7263 10.1243 14.7319 10.1243 14.7374 10.1243C15.689 10.1243 16.6425 9.90872 17.57 9.4853H17.6052L17.6293 9.45835C17.6776 9.43526 17.7258 9.41409 17.7722 9.38907C17.7889 9.38137 17.8056 9.37174 17.8204 9.36405C17.8519 9.34865 17.8835 9.33325 17.915 9.31593C17.9354 9.30631 17.954 9.29476 17.9744 9.28513C18.0022 9.26974 18.03 9.25626 18.0578 9.24087C18.0782 9.22932 18.0987 9.21777 18.1191 9.20622C18.145 9.19083 18.1729 9.17735 18.1988 9.16196C18.2192 9.15041 18.2415 9.13694 18.2619 9.12539C18.2879 9.10999 18.3138 9.09459 18.3398 9.0792C18.3602 9.06572 18.3825 9.05418 18.4029 9.0407C18.4288 9.02531 18.453 9.00991 18.4789 8.99451C18.4993 8.98104 18.5216 8.96757 18.542 8.95409C18.568 8.9387 18.5921 8.9233 18.6162 8.90598C18.6366 8.89251 18.6589 8.87711 18.6793 8.86364C18.6978 8.85016 18.7182 8.83861 18.7368 8.82514C17.6776 10.003 16.188 10.6747 14.6373 10.6747Z" fill="#969696"/>
</mask>
<g mask="url(#mask0_1740_670)">
<rect x="2" y="3" width="17" height="23" rx="2" fill="#C4C4C4"/>
</g>
<rect x="2.35" y="3.35" width="16.3" height="22.3" rx="1.65" stroke="#969696" stroke-width="0.7"/>
</svg>
