<svg width="23" height="20" viewBox="0 0 23 20" fill="none" xmlns="http://www.w3.org/2000/svg">
<path d="M11.2181 19.1217C11.2377 19.1268 11.2388 19.1316 11.219 19.1179L11.2166 19.1214L11.2181 19.1217ZM11.2181 19.1217L10.9353 19.5296L11.2181 19.1217ZM12.4336 2.57994L12.4341 2.57922C13.8649 0.732396 16.2093 0.0379995 18.3373 0.81251C20.4246 1.57556 21.8733 3.64751 21.8752 6.30624C21.8484 7.56816 21.2642 8.96958 20.3942 10.3326L20.3934 10.334C18.8559 12.7602 16.8081 14.7045 14.5909 16.5405L14.5907 16.5408C13.5127 17.4346 12.3901 18.2683 11.234 19.0541L11.2334 19.0545C11.2123 19.0689 11.1953 19.0804 11.1797 19.0906C8.00446 16.886 5.03954 14.4945 2.70163 11.4002C1.65202 10.0075 0.823509 8.55272 0.565506 6.84817L0.56549 6.84806C0.189608 4.36821 1.45852 1.97395 3.64537 0.975418C5.85159 -0.0292779 8.4029 0.612306 9.93218 2.58333C10.1086 2.81149 10.2874 3.01208 10.4764 3.15808C10.6693 3.30708 10.9052 3.42407 11.1836 3.42297C11.4614 3.42187 11.6964 3.30355 11.8883 3.15471C12.077 3.00843 12.2563 2.80793 12.4336 2.57994Z" stroke="#969696"/>
</svg>
