<svg width="22" height="21" viewBox="0 0 22 21" fill="none" xmlns="http://www.w3.org/2000/svg">
<path d="M21.9926 9.23477C21.9926 8.99962 21.859 8.7865 21.6476 8.67995C21.5808 8.64688 21.5103 8.62483 21.4398 8.61749C21.3656 7.40128 21.0725 6.22549 20.5717 5.11584C20.3788 4.68962 19.9669 4.4067 19.4884 4.36628C19.4921 4.24502 19.4624 4.1201 19.3919 4.01354C19.1359 3.62774 18.8503 3.25295 18.5423 2.90757C17.8894 2.1727 17.0101 1.66197 16.053 1.44518C16.0344 1.32393 15.9639 1.21737 15.8526 1.15123C14.5727 0.375948 13.0998 -0.0245549 11.5899 0.00116548C11.1595 0.00851416 10.7292 0.0489319 10.3099 0.122419C10.2209 0.137116 10.143 0.177534 10.0836 0.236323C9.4344 -0.0172062 8.70725 -0.0319035 8.04317 0.19958C7.47926 0.397994 6.93019 0.647849 6.4145 0.94547C6.34401 0.985888 6.28094 1.041 6.23272 1.10714C5.88769 0.923424 5.46105 0.949144 5.14199 1.18798C4.886 1.37904 4.63744 1.5848 4.4 1.80159C4.31838 1.75382 4.22563 1.72076 4.12917 1.70973C3.89916 1.68034 3.67285 1.7575 3.51332 1.92652C2.62664 2.84878 1.92175 3.90699 1.42091 5.07175C1.32445 5.05705 1.22428 5.0644 1.12782 5.09012C0.897808 5.15259 0.71231 5.32528 0.630692 5.54941C0.211467 6.73255 0 7.97815 0 9.24212C0 10.7523 0.296796 12.211 0.882968 13.5815C0.864418 13.5889 0.845869 13.5999 0.831029 13.6109C0.560202 13.7763 0.463744 14.1033 0.604722 14.3862C1.5656 16.3409 3.05329 17.9907 4.90455 19.1628C6.80776 20.3643 9.01518 21 11.282 21C14.6098 21 17.804 19.6038 20.0486 17.1677C20.2563 16.9399 20.2637 16.6055 20.0597 16.3703C20.0449 16.352 20.0263 16.3336 20.0078 16.3152C20.7201 15.4554 21.2988 14.5001 21.7255 13.4676C21.8293 13.2178 21.7551 12.9312 21.5437 12.7585C21.5066 12.7291 21.4658 12.7033 21.4212 12.6813C21.8034 11.5753 22 10.4179 22 9.23477H21.9926ZM11.601 0.61478C12.7251 0.596408 13.8307 0.83524 14.8361 1.30555C14.7804 1.30555 14.7248 1.30188 14.6691 1.30188C14.3464 1.28718 14.0088 1.26881 13.6526 1.24677C12.7845 1.19532 11.9572 1.01896 11.1781 0.721336C11.1224 0.695615 11.0631 0.673569 11.0074 0.647849C11.204 0.629477 11.4007 0.618454 11.601 0.61478ZM8.24722 0.783799C8.84452 0.574362 9.50489 0.618454 10.0614 0.905052C10.3396 1.04835 10.6216 1.17695 10.911 1.28718C11.7272 1.64359 12.599 1.84201 13.5153 1.88243C13.916 1.9008 14.2907 1.91182 14.6506 1.92284C14.825 1.93019 14.9956 1.93754 15.1626 1.94489C16.2755 1.98898 17.3366 2.48869 18.0712 3.31542C18.3568 3.63508 18.6202 3.9768 18.854 4.33321C18.7909 4.32953 18.7278 4.32586 18.661 4.32586C18.316 4.31116 17.9747 4.29279 17.626 4.27442C17.3626 4.2634 17.0992 4.2487 16.8358 4.23768C16.7096 4.23033 16.5835 4.22665 16.4573 4.2193C15.2776 4.16419 14.0793 4.10907 12.8847 4.07233C12.7734 4.06866 12.6621 4.06131 12.5508 4.05396C12.5471 4.05396 12.5396 4.05396 12.5359 4.05396C12.4246 4.04294 12.3096 4.03191 12.1946 4.01722C12.1909 4.01722 12.1872 4.01722 12.1835 4.01722C10.7626 3.8188 9.18955 3.15375 7.56088 2.06982C7.55717 2.06614 7.55346 2.06247 7.54975 2.06247C7.42361 1.97796 7.29376 1.88977 7.16762 1.79792C7.15278 1.78689 7.13794 1.77954 7.12681 1.76852C7.00809 1.68401 6.88567 1.59583 6.76324 1.50397C6.75582 1.49662 6.74469 1.49295 6.73727 1.4856C7.21585 1.199 7.72411 0.967516 8.24722 0.783799ZM5.51298 1.68034C5.65025 1.57746 5.84317 1.58113 5.98786 1.69136C6.10658 1.78322 6.22159 1.8714 6.3403 1.95959C6.34401 1.95959 6.34401 1.96326 6.34772 1.96326C6.36256 1.97428 6.3774 1.98531 6.39224 1.99633C6.43305 2.02573 6.47386 2.05512 6.51096 2.08451C6.54064 2.10656 6.57032 2.12861 6.6 2.15065C6.64823 2.1874 6.69646 2.22046 6.74469 2.25353C6.76324 2.26823 6.7855 2.28293 6.80405 2.29395C6.86341 2.33437 6.91906 2.37479 6.97842 2.41521C6.98584 2.42255 6.99697 2.42623 7.00438 2.43358C8.64789 3.5616 10.2506 4.28177 11.7309 4.56102C11.7346 4.56102 11.7346 4.56102 11.7383 4.56102C11.7976 4.57204 11.8607 4.58306 11.9201 4.59409C11.9275 4.59409 11.9386 4.59776 11.946 4.59776C12.0017 4.60511 12.0536 4.61613 12.1093 4.62348C12.1241 4.62716 12.1427 4.62716 12.1575 4.63083C12.2057 4.63818 12.254 4.64185 12.2985 4.6492C12.3207 4.65288 12.3467 4.65288 12.369 4.65655C12.4098 4.66022 12.4469 4.6639 12.4877 4.66757C12.5211 4.67125 12.5582 4.67125 12.5916 4.67492C12.6212 4.6786 12.6472 4.6786 12.6769 4.68227C12.74 4.68594 12.803 4.68962 12.8661 4.68962C14.4503 4.73739 16.0492 4.81822 17.5963 4.89171C17.7076 4.89538 17.8189 4.90273 17.9302 4.9064C18.1639 4.91743 18.3939 4.92845 18.6239 4.93947C18.6944 4.94315 18.7686 4.94682 18.8391 4.9505C18.8428 4.9505 18.8465 4.9505 18.8503 4.9505C19.0358 4.95785 19.225 4.96887 19.4105 4.97622H19.4179C19.6702 4.98724 19.8927 5.13789 19.9929 5.36202C20.4901 6.46065 20.7683 7.62909 20.8202 8.83427C20.798 8.84897 20.7757 8.86734 20.7497 8.88204C20.7275 8.89673 20.7052 8.91143 20.683 8.92613C20.6088 8.9739 20.5383 9.02534 20.4641 9.0731C17.7892 10.8258 14.8064 11.579 12.4877 11.0903C11.0631 10.7927 9.96492 10.0542 9.21922 8.90041C8.6516 8.02224 8.02462 7.13305 7.41619 6.27326C6.55548 5.05338 5.66138 3.78941 4.91197 2.51074C4.86745 2.43358 4.81922 2.35642 4.7747 2.27925C5.01585 2.07349 5.26071 1.86773 5.51298 1.68034ZM3.96223 2.34907C3.9882 2.31967 4.02159 2.31967 4.04385 2.31967C4.0624 2.32335 4.09578 2.33069 4.11433 2.36376L4.12175 2.37479C4.15885 2.44093 4.19966 2.51074 4.24047 2.58055L4.24418 2.58422C4.2887 2.66506 4.33693 2.7459 4.38516 2.82673C5.14941 4.12745 6.04722 5.39877 6.91906 6.63334C7.44587 7.37923 7.99123 8.15084 8.49207 8.91143C8.56256 9.02166 8.63676 9.12822 8.70354 9.23845C9.53086 10.5208 10.7997 11.3732 12.369 11.7039C12.4395 11.7186 12.5137 11.7333 12.5841 11.7443C12.6064 11.748 12.6324 11.7517 12.6546 11.7554C12.7029 11.7627 12.7548 11.7701 12.803 11.7774C12.829 11.7811 12.8587 11.7848 12.8847 11.7884C12.9329 11.7958 12.9811 11.7995 13.0331 11.8068C13.059 11.8105 13.085 11.8142 13.111 11.8142C13.1666 11.8215 13.226 11.8252 13.2816 11.8289C13.3002 11.8289 13.3187 11.8325 13.3373 11.8325C13.4115 11.8362 13.4857 11.8436 13.5599 11.8472C13.5858 11.8472 13.6118 11.8472 13.6378 11.8509C13.6897 11.8546 13.7417 11.8546 13.7936 11.8546C13.8233 11.8546 13.8567 11.8546 13.8863 11.8546C13.9086 11.8546 13.9346 11.8546 13.9568 11.8546C13.968 11.8546 13.9828 11.8546 13.9939 11.8546C14.1164 11.8546 14.2351 11.8509 14.3575 11.8472C14.3686 11.8472 14.3761 11.8472 14.3872 11.8472C14.5022 11.8399 14.6209 11.8325 14.7396 11.8252C14.7619 11.8215 14.7841 11.8215 14.8064 11.8178C14.9288 11.8068 15.0513 11.7921 15.1774 11.7774C15.1997 11.7737 15.2219 11.7701 15.2442 11.7701C15.3629 11.7554 15.4779 11.737 15.5966 11.715C15.6115 11.7113 15.6226 11.7113 15.6374 11.7076C15.7636 11.6856 15.8897 11.6598 16.0196 11.6341C16.0455 11.6304 16.0715 11.6231 16.0975 11.6157C16.2273 11.5863 16.3535 11.557 16.4833 11.5276C16.4907 11.5276 16.4981 11.5239 16.5056 11.5202C16.628 11.4871 16.7541 11.4541 16.8803 11.421C16.9062 11.4137 16.9322 11.4063 16.9582 11.399C17.0843 11.3622 17.2142 11.3218 17.3403 11.2814C17.3626 11.274 17.3848 11.2667 17.4071 11.2593C17.5258 11.2189 17.6445 11.1785 17.7632 11.1344C17.7818 11.1271 17.8003 11.1234 17.8152 11.116C17.9413 11.0683 18.0712 11.0205 18.1973 10.9691C18.227 10.958 18.253 10.947 18.2826 10.936C18.4125 10.8846 18.5423 10.8294 18.6722 10.7706C18.6759 10.767 18.6833 10.767 18.687 10.7633C18.8132 10.7082 18.9393 10.6494 19.0617 10.5869C19.0877 10.5722 19.1174 10.5612 19.1433 10.5465C19.2695 10.484 19.3956 10.4216 19.518 10.3554C19.5403 10.3444 19.5626 10.3297 19.5885 10.3187C19.7035 10.2599 19.8148 10.1974 19.9261 10.135C19.9484 10.124 19.9707 10.1129 19.9892 10.0982C20.1116 10.0284 20.2378 9.95494 20.3602 9.88146C20.3899 9.86308 20.4159 9.84839 20.4455 9.83002C20.568 9.75286 20.6904 9.67569 20.8128 9.59853C20.8165 9.59853 20.8165 9.59486 20.8202 9.59486C20.8981 9.54342 20.9761 9.49198 21.0503 9.44054C21.0725 9.42584 21.0985 9.40747 21.1207 9.39277C21.1467 9.3744 21.1727 9.3597 21.1987 9.34133C21.2024 9.33766 21.2061 9.33398 21.2098 9.33398C21.2506 9.30459 21.2914 9.27519 21.3322 9.2458L21.3545 9.2311C21.3619 9.22375 21.3693 9.2311 21.3693 9.23477V9.24212C21.3693 10.4253 21.1653 11.579 20.7572 12.6776H20.6607V12.8209C20.453 12.9532 20.2415 13.0781 20.03 13.1994C19.7815 13.339 19.5218 13.4786 19.2509 13.6109C15.7895 15.3158 11.4563 15.8927 8.94469 14.9851C8.02833 14.6544 7.41619 14.151 7.12681 13.4897C5.40911 9.56179 4.19224 7.52988 2.63777 5.99401C2.50422 5.86173 2.36695 5.72946 2.22597 5.6082C2.14806 5.53839 2.07015 5.46858 1.98482 5.39877C1.9774 5.39142 1.96998 5.38407 1.96256 5.38039C2.43744 4.25237 3.10894 3.23458 3.96223 2.34907ZM1.21315 5.7515C1.22799 5.70741 1.26509 5.68904 1.28735 5.68536C1.3059 5.68169 1.34671 5.67434 1.38381 5.70741C1.44688 5.75885 1.50624 5.81029 1.56931 5.86173C1.64722 5.92787 1.72513 5.99768 1.80304 6.06382C1.93288 6.1814 2.06644 6.30265 2.19258 6.43125C3.68769 7.90466 4.86745 9.88513 6.55177 13.7322C6.91164 14.5552 7.6425 15.1725 8.72951 15.562C9.60877 15.8816 10.6735 16.0323 11.8347 16.0323C14.2388 16.0323 17.0621 15.3746 19.5292 14.1584C19.8074 14.0224 20.082 13.8755 20.3379 13.7322C20.4604 13.6623 20.5865 13.5889 20.7052 13.5154C20.7164 13.508 20.7238 13.5044 20.7349 13.497C20.8462 13.4309 20.9575 13.3611 21.0651 13.2912H21.1096C20.6459 14.3935 20.0003 15.404 19.1916 16.2968C19.1359 16.3336 19.084 16.3667 19.0283 16.3997C18.9987 16.4181 18.9727 16.4365 18.943 16.4548C18.8836 16.4916 18.8243 16.5283 18.7649 16.5651C18.7352 16.5834 18.7019 16.6018 18.6722 16.6202C18.6128 16.6533 18.5572 16.69 18.4978 16.7231C18.4644 16.7414 18.431 16.7635 18.3976 16.7819C18.342 16.8149 18.2826 16.8443 18.227 16.8774C18.1899 16.8958 18.1565 16.9178 18.1194 16.9362C18.0637 16.9656 18.0081 16.995 17.9524 17.0244C17.9153 17.0427 17.8782 17.0648 17.8411 17.0832C17.7855 17.1126 17.7261 17.1419 17.6705 17.1713C17.6334 17.1897 17.6 17.2081 17.5629 17.2265C17.4998 17.2558 17.4405 17.2852 17.3774 17.3146C17.344 17.3293 17.3143 17.344 17.2809 17.3624C17.1882 17.4065 17.0954 17.4506 16.999 17.491H16.9285L16.8803 17.5424C16.769 17.5902 16.6577 17.638 16.5464 17.6857C16.4981 17.7041 16.4499 17.7225 16.4017 17.7445C16.3386 17.7703 16.2755 17.796 16.2088 17.818C16.1457 17.8401 16.0863 17.8621 16.0233 17.8878C15.9713 17.9062 15.9231 17.9246 15.8712 17.943C15.8044 17.9687 15.7339 17.9907 15.6671 18.0128C15.6226 18.0275 15.5781 18.0422 15.5336 18.0569C15.4631 18.0789 15.3963 18.1009 15.3258 18.123C15.2813 18.1377 15.2368 18.1524 15.1922 18.1634C15.1255 18.1818 15.0587 18.2038 14.9882 18.2222C14.9437 18.2332 14.8954 18.2479 14.8509 18.2626C14.7879 18.281 14.7248 18.2957 14.658 18.3104C14.6098 18.3214 14.5578 18.3361 14.5096 18.3471C14.4503 18.3618 14.3909 18.3728 14.3352 18.3875C14.2796 18.3986 14.2239 18.4133 14.1683 18.4243C14.1164 18.4353 14.0644 18.4463 14.0088 18.4574C13.9457 18.4684 13.8863 18.4831 13.8233 18.4941C13.775 18.5015 13.7305 18.5088 13.6823 18.5198C13.6155 18.5308 13.545 18.5455 13.4782 18.5566C13.4374 18.5639 13.3929 18.5676 13.3521 18.5749C13.2779 18.586 13.2074 18.597 13.1332 18.608C13.0961 18.6117 13.059 18.6154 13.0182 18.6227C12.9403 18.6337 12.8624 18.6411 12.7882 18.6484C12.7511 18.6521 12.7177 18.6558 12.6806 18.6594C12.6027 18.6668 12.5211 18.6741 12.4432 18.6815C12.4061 18.6852 12.369 18.6852 12.3356 18.6888C12.2577 18.6925 12.1798 18.6999 12.1019 18.7035C12.061 18.7072 12.0202 18.7072 11.9794 18.7072C11.9089 18.7109 11.8347 18.7146 11.7643 18.7146C11.7123 18.7146 11.6641 18.7146 11.6121 18.7182C11.5491 18.7182 11.486 18.7182 11.4229 18.7182H11.3821C11.2449 18.7182 11.1039 18.7146 10.9666 18.7072C10.911 18.7035 10.8553 18.6999 10.7997 18.6962C10.7143 18.6925 10.629 18.6888 10.5437 18.6815C10.4806 18.6778 10.4212 18.6705 10.3582 18.6631C10.2803 18.6558 10.2024 18.6484 10.1245 18.6411C10.0577 18.6337 9.9946 18.6227 9.92782 18.6154C9.85363 18.6043 9.77572 18.597 9.70152 18.586L9.66071 18.5786C9.05599 18.4904 8.44384 18.3508 7.84283 18.1634C7.66476 18.1083 7.48668 18.0495 7.31231 17.987C7.13794 17.9246 6.96358 17.8548 6.79292 17.785C6.70759 17.7482 6.62226 17.7115 6.53693 17.6747C5.60573 17.2632 4.72648 16.7304 3.914 16.0911L3.89916 16.0801C3.79528 15.9992 3.69511 15.9147 3.59123 15.8302C3.55784 15.8045 3.52816 15.7751 3.49477 15.7457C3.42799 15.6869 3.3575 15.6281 3.29073 15.5693C3.25363 15.5363 3.21653 15.4995 3.17943 15.4664C3.12007 15.4113 3.057 15.3562 2.99764 15.2974C2.95683 15.257 2.91602 15.2166 2.87521 15.1798C2.81956 15.1247 2.76391 15.0733 2.71197 15.0182C2.66745 14.9741 2.62664 14.93 2.58583 14.8859C2.5339 14.8345 2.48567 14.783 2.43373 14.7279C2.38921 14.6801 2.3484 14.6324 2.30388 14.5846C2.25565 14.5332 2.21113 14.4817 2.1629 14.4303C2.11838 14.3788 2.07386 14.3274 2.02934 14.276C1.98482 14.2245 1.94401 14.1731 1.89949 14.1216C1.85497 14.0665 1.81046 14.0114 1.76594 13.9526C1.72884 13.9049 1.69174 13.8571 1.65464 13.8093C0.960877 12.38 0.612142 10.8478 0.612142 9.24947C0.619562 8.04429 0.819899 6.8685 1.21315 5.7515ZM11.2745 20.379C7.00067 20.379 3.17572 18.0495 1.24283 14.2796C1.27622 14.3201 1.30961 14.3605 1.343 14.4009C1.38381 14.4523 1.42462 14.5001 1.46543 14.5515C1.51366 14.6103 1.56189 14.6654 1.61012 14.7242C1.65093 14.772 1.69174 14.8198 1.73255 14.8675C1.78078 14.9263 1.83272 14.9814 1.88465 15.0366C1.92546 15.0806 1.96627 15.1284 2.00708 15.1725C2.05902 15.2276 2.11096 15.2827 2.16661 15.3378C2.20742 15.3819 2.24823 15.426 2.29275 15.4664C2.3484 15.5216 2.40405 15.5767 2.4597 15.6281C2.50051 15.6685 2.54503 15.7126 2.58583 15.753C2.64519 15.8082 2.70084 15.8596 2.7602 15.9147C2.80101 15.9515 2.84182 15.9919 2.88263 16.0286C2.9457 16.0874 3.01248 16.1425 3.07555 16.1976C3.11265 16.2307 3.14975 16.2638 3.18685 16.2932C3.29073 16.3814 3.3946 16.4659 3.49848 16.5467L3.51332 16.5577C4.75987 17.5461 6.15481 18.281 7.66105 18.7513C8.29174 18.946 8.93356 19.093 9.57538 19.1886C9.58651 19.1922 9.59764 19.1922 9.60877 19.1922C9.657 19.1996 9.70894 19.2069 9.76088 19.2143C9.84992 19.229 9.93525 19.24 10.0243 19.251C10.0911 19.2584 10.1578 19.2657 10.2246 19.2731C10.2988 19.2804 10.3767 19.2878 10.4509 19.2951C10.5251 19.3025 10.5993 19.3025 10.6735 19.3098C10.744 19.3135 10.8108 19.3172 10.8813 19.3208C10.9555 19.3245 11.026 19.3245 11.1002 19.3245C11.1595 19.3245 11.2189 19.3282 11.2745 19.3282C11.2968 19.3282 11.3228 19.3282 11.345 19.3282C11.3487 19.3282 11.3562 19.3282 11.3599 19.3282L11.4007 19.3392L11.4415 19.3282C11.4526 19.3282 11.4637 19.3282 11.4749 19.3282C13.3781 19.3282 15.285 18.9166 17.14 18.1083H17.2105L17.2587 18.0569C17.3551 18.0128 17.4516 17.9723 17.5444 17.9246C17.5777 17.9099 17.6111 17.8915 17.6408 17.8768C17.7039 17.8474 17.7669 17.818 17.83 17.785C17.8708 17.7666 17.9079 17.7445 17.9487 17.7262C18.0044 17.6968 18.06 17.6711 18.1157 17.6417C18.1565 17.6196 18.1973 17.5976 18.2381 17.5755C18.2901 17.5461 18.3457 17.5204 18.3976 17.491C18.4384 17.469 18.483 17.4432 18.5238 17.4212C18.5757 17.3918 18.6277 17.3624 18.6796 17.333C18.7204 17.3073 18.7649 17.2852 18.8057 17.2595C18.8577 17.2301 18.9059 17.2007 18.9578 17.1713C18.9987 17.1456 19.0432 17.1199 19.084 17.0942C19.1359 17.0648 19.1841 17.0354 19.2324 17.0023C19.2732 16.9766 19.3177 16.9472 19.3585 16.9215C19.3956 16.8958 19.4364 16.8737 19.4735 16.848C17.3551 19.0967 14.3761 20.379 11.2745 20.379Z" fill="#969696"/>
</svg>
