<svg width="19" height="24" viewBox="0 0 19 24" fill="none" xmlns="http://www.w3.org/2000/svg">
<path d="M17.9 19.2883C17.6304 19.1745 17.4245 19.0266 17.286 18.8369C17.1587 18.6776 17.0801 18.4879 17.0464 18.2679C17.0427 18.2565 17.0389 18.2451 17.0427 18.2337C17.024 18.1465 17.0202 18.0516 17.0202 17.953C17.0202 17.8013 17.024 17.6457 17.024 17.494C17.0277 16.9174 17.0277 16.3408 17.0277 15.7679V15.1306C17.024 14.6792 17.024 14.2316 17.024 13.7801C17.024 13.2756 17.024 12.7711 17.0277 12.2665V11.6216C17.0277 11.0602 17.0277 10.4987 17.0202 9.93731C17.009 8.97755 16.8293 8.05572 16.5036 7.20598C16.4287 7.00492 16.3426 6.81145 16.2527 6.62178C16.0131 6.12862 15.7211 5.66202 15.3842 5.23715C15.3805 5.23715 15.3805 5.23335 15.3805 5.23335C15.0136 4.77054 14.5868 4.34946 14.1151 3.98908C14.0926 3.97011 14.0664 3.95115 14.0439 3.93597C14.0215 3.84113 13.9616 3.75768 13.8717 3.70457C13.4524 3.44282 13.0107 3.23038 12.5539 3.06346C12.5427 3.05967 12.5315 3.05588 12.524 3.05208C12.4341 3.01415 12.3443 2.97621 12.2544 2.94207C11.6854 2.72205 11.4607 2.49823 11.457 1.85333C11.442 0.574921 10.1879 -0.274825 8.9749 0.0817648C8.06891 0.347311 7.57099 1.08705 7.55602 2.18716C7.55227 2.38063 7.59345 2.5741 7.42498 2.69549C7.38755 2.72584 7.33139 2.7524 7.264 2.77136C6.3655 3.02932 5.50444 3.49213 4.74446 4.12944C4.47491 4.35326 4.21659 4.59984 3.97699 4.86917C3.84222 5.02092 3.71119 5.17266 3.59139 5.33578C2.93623 6.1969 2.44205 7.22874 2.19122 8.39335C2.14255 8.62475 2.10137 8.85995 2.07142 9.10273C2.07142 9.10273 2.07142 9.10273 2.07142 9.10653C2.02275 9.50864 2.00029 9.92593 2.01152 10.3584C2.06019 12.3841 2.03399 14.4174 2.03024 16.4508C2.0265 16.7163 2.02275 16.9857 2.0265 17.2512C2.02275 17.4295 2.02275 17.6116 2.02275 17.7937V17.9492C2.02275 18.1616 2.00029 18.3703 1.94039 18.5524C1.83931 18.8748 1.6334 19.1214 1.26652 19.2049C0.154623 19.4628 -0.129902 20.1532 0.0497984 21.1813C0.0535422 21.2116 0.0497984 21.2458 0.0497984 21.2761C0.0535422 21.9286 0.132161 22.0083 0.764855 22.0121C2.7715 22.0121 4.77441 22.0158 6.78106 22.0045C7.06559 22.0045 7.2041 22.0727 7.30144 22.3724C7.6234 23.3625 8.49944 23.9885 9.49902 23.9998C10.5173 24.0112 11.4158 23.3777 11.7453 22.3724C11.8426 22.0803 11.9736 22.0007 12.2657 22.0045C14.16 22.0158 16.0581 22.0121 17.9524 22.0121C18.9969 22.0121 19.0044 22.0121 18.9969 20.9499C18.9857 19.4856 19.1654 19.8118 17.9 19.2883ZM15.3243 6.57626C15.1371 6.56867 14.9499 6.55729 14.7627 6.5497C14.6467 6.54211 14.5344 6.53832 14.4183 6.53073C13.3588 6.48142 12.2806 6.4321 11.2062 6.39796C11.1051 6.39417 11.004 6.38658 10.9029 6.37899H10.888C10.7869 6.37141 10.6858 6.35623 10.5847 6.34485C10.581 6.34106 10.5772 6.34106 10.5735 6.34106C9.29312 6.15897 7.87798 5.54821 6.41043 4.54673C6.40669 4.54293 6.40294 4.53914 6.3992 4.53914C6.28314 4.45948 6.17083 4.37981 6.05477 4.29635C6.0398 4.28497 6.02857 4.27739 6.01734 4.26601C6.0061 4.25842 5.99487 4.25083 5.98364 4.23945C6.66875 3.80699 7.43996 3.49592 8.26733 3.32901C8.4021 3.36315 8.53688 3.41626 8.66042 3.48075C8.91125 3.61352 9.16583 3.73112 9.42789 3.83355C10.1617 4.16358 10.9441 4.34567 11.7715 4.38361C12.1309 4.39878 12.4716 4.41016 12.7935 4.41775C12.9508 4.42533 13.1043 4.43292 13.254 4.44051C13.2989 4.4443 13.3476 4.4443 13.3925 4.4481C14.1712 5.00954 14.8376 5.7341 15.3243 6.57626ZM12.3256 3.81837C12.1833 3.81458 12.041 3.8032 11.8913 3.79561C11.1126 3.75009 10.3676 3.58697 9.66375 3.31384C9.61508 3.29107 9.56266 3.26831 9.51025 3.24555C9.68995 3.22658 9.86591 3.219 10.0456 3.2152C10.843 3.27211 11.6142 3.48454 12.3256 3.81837ZM9.54395 0.806325C10.2553 0.817706 10.7682 1.43225 10.7157 2.19475C10.7045 2.39201 10.6484 2.46788 10.4424 2.44892C10.1392 2.41857 9.83222 2.41098 9.52523 2.39581C9.21824 2.41098 8.91125 2.41857 8.60427 2.44892C8.4021 2.46788 8.3422 2.3996 8.32723 2.19475C8.27482 1.41708 8.81017 0.794945 9.54395 0.806325ZM5.48572 4.58466C5.50444 4.59984 5.5269 4.61501 5.54562 4.63018C5.59055 4.66053 5.63547 4.69467 5.67665 4.72502C5.69537 4.7402 5.71409 4.75158 5.73281 4.76675C5.78148 4.80089 5.83389 4.83883 5.8863 4.87676C5.89379 4.88056 5.90502 4.88814 5.91251 4.89194C7.39129 5.93136 8.83638 6.59522 10.1654 6.85318C10.1692 6.85318 10.1692 6.85318 10.1729 6.85318C10.2253 6.86456 10.2815 6.87594 10.3376 6.88353C10.3451 6.88353 10.3526 6.88732 10.3601 6.88732C10.4088 6.89491 10.4574 6.9025 10.5061 6.91008C10.5211 6.91008 10.536 6.91388 10.5473 6.91388C10.5922 6.92146 10.6334 6.92526 10.6783 6.93284C10.697 6.93284 10.7195 6.93664 10.7419 6.93664C10.7756 6.94043 10.8131 6.94423 10.8468 6.94802C10.8767 6.95181 10.9104 6.95561 10.9404 6.95561C10.9666 6.9594 10.9928 6.9594 11.0152 6.96319C11.0751 6.96699 11.1313 6.96699 11.1875 6.97078C12.6138 7.0163 14.0552 7.08459 15.4441 7.15666C15.504 7.16046 15.5676 7.16046 15.6275 7.16425C15.8372 7.61947 15.9907 8.10125 16.0918 8.60199C16.2041 9.17481 16.234 9.75142 16.234 10.328C16.234 10.8933 16.2378 11.4585 16.234 12.0237C14.3509 12.8962 12.4304 13.2111 10.8505 12.8697C9.57015 12.5966 8.5818 11.9175 7.91167 10.8515C7.39878 10.0435 6.83347 9.22413 6.28689 8.43128C5.65045 7.50946 4.99904 6.56108 4.40752 5.60132C4.72574 5.22197 5.08889 4.88056 5.48572 4.58466ZM4.03689 6.07551C4.6022 6.98975 5.22366 7.88881 5.8264 8.76132C6.30186 9.44794 6.78855 10.1573 7.24154 10.8591C7.30893 10.9616 7.37257 11.0602 7.43622 11.1626C8.17748 12.3424 9.31932 13.1276 10.7345 13.4311C10.7981 13.4425 10.8617 13.4577 10.9291 13.4691C10.9479 13.4729 10.9703 13.4767 10.989 13.4804C11.034 13.488 11.0789 13.4956 11.1238 13.4994C11.15 13.5032 11.1725 13.507 11.1987 13.5108C11.2436 13.5184 11.2848 13.5222 11.3297 13.526C11.3559 13.5298 11.3784 13.5336 11.4008 13.5373C11.4533 13.5411 11.5057 13.5449 11.5581 13.5487C11.5731 13.5525 11.588 13.5525 11.6068 13.5563C11.6741 13.5601 11.7378 13.5639 11.8052 13.5677H11.8763C11.9212 13.5715 11.9662 13.5715 12.0148 13.5753H12.1945C12.3031 13.5753 12.4117 13.5715 12.524 13.5677C12.5315 13.5677 12.5389 13.5677 12.5502 13.5639C12.655 13.5601 12.7598 13.5525 12.8647 13.5449C12.8871 13.5411 12.9058 13.5411 12.9283 13.5373C13.0369 13.5298 13.1492 13.5146 13.2615 13.4994C13.2802 13.4994 13.2989 13.4956 13.3214 13.4918C13.4262 13.4767 13.531 13.4615 13.6396 13.4425C13.6508 13.4425 13.6621 13.4387 13.6733 13.4387C13.7894 13.416 13.9017 13.3932 14.0177 13.3704C14.0402 13.3666 14.0664 13.3591 14.0889 13.3553C14.2049 13.3287 14.321 13.3021 14.437 13.2718C14.4408 13.2718 14.4483 13.268 14.4557 13.268C14.5681 13.2377 14.6804 13.2073 14.7927 13.1732C14.8151 13.1694 14.8376 13.1618 14.8601 13.1542C14.9761 13.1201 15.0884 13.0821 15.2045 13.0442C15.2232 13.0404 15.2457 13.0328 15.2644 13.0252C15.373 12.9873 15.4778 12.9494 15.5864 12.9114C15.6013 12.9038 15.6163 12.9 15.6313 12.8925C15.7473 12.8507 15.8634 12.8052 15.9795 12.7559C16.0019 12.7445 16.0281 12.7369 16.0543 12.7255C16.1142 12.699 16.1779 12.6724 16.2378 12.6459C16.2378 13.6018 16.234 14.554 16.2378 15.5062C13.2577 16.8187 9.74985 17.2208 7.65335 16.447C6.82973 16.1397 6.27565 15.6769 6.01734 15.0699C4.81934 12.2627 3.89089 10.5063 2.88007 9.20136C2.98864 8.04814 3.4042 6.98216 4.03689 6.07551ZM5.5007 15.2975C5.82266 16.0524 6.48156 16.6215 7.45868 16.9819C8.25235 17.2778 9.21075 17.4181 10.2553 17.4181C12.1196 17.4181 14.2611 16.9667 16.2378 16.1283V17.7823C16.2378 17.8771 16.2415 17.972 16.2453 18.0592C16.2191 18.0744 16.1928 18.0896 16.1666 18.1047C16.1142 18.1351 16.0656 18.1654 16.0131 18.192C15.9795 18.211 15.9495 18.2299 15.9158 18.2489C15.8671 18.2754 15.8185 18.302 15.7661 18.3286C15.7324 18.3475 15.7024 18.3665 15.6687 18.3855C15.6163 18.412 15.5639 18.4386 15.5152 18.4651C15.4815 18.4803 15.4516 18.4993 15.4179 18.5144C15.3617 18.541 15.3056 18.5675 15.2532 18.5941C15.2232 18.6093 15.1933 18.6244 15.1671 18.6396C15.081 18.6776 14.9986 18.7193 14.9125 18.7572H14.8488L14.8039 18.8065C14.7066 18.8483 14.6055 18.8938 14.5044 18.9355C14.4595 18.9545 14.4146 18.9697 14.3734 18.9886C14.3172 19.0114 14.2573 19.0341 14.2012 19.0569C14.145 19.0797 14.0889 19.0986 14.0327 19.1214C13.9878 19.1366 13.9429 19.1555 13.8979 19.1707C13.838 19.1935 13.7744 19.2124 13.7145 19.2352C13.6733 19.2466 13.6321 19.2618 13.5947 19.2769C13.531 19.2959 13.4711 19.3149 13.4075 19.3338C13.3663 19.349 13.3289 19.3604 13.2877 19.3718C13.2278 19.3907 13.1679 19.4097 13.1043 19.4249C13.0631 19.4363 13.0256 19.4514 12.9845 19.4628C12.9246 19.478 12.8684 19.4932 12.8085 19.5083C12.7636 19.5197 12.7186 19.5311 12.6737 19.5425C12.6213 19.5539 12.5689 19.5652 12.5165 19.5804C12.4678 19.5918 12.4154 19.6032 12.3667 19.6146C12.3181 19.6259 12.2694 19.6335 12.2245 19.6449C12.1683 19.6563 12.1122 19.6677 12.056 19.679C12.0148 19.6866 11.9736 19.6942 11.9287 19.7018C11.8688 19.7094 11.8089 19.7208 11.7453 19.7322C11.7078 19.7397 11.6704 19.7435 11.633 19.7511C11.5656 19.7587 11.5019 19.7701 11.4345 19.7777C11.4008 19.7815 11.3672 19.7853 11.3335 19.7928C11.2623 19.8004 11.1949 19.808 11.1238 19.8156C11.0939 19.8194 11.0602 19.8232 11.0265 19.827C10.9553 19.8346 10.8842 19.8384 10.8131 19.846C10.7831 19.8498 10.7494 19.8498 10.7157 19.8535C10.6446 19.8573 10.5772 19.8611 10.5061 19.8649C10.4687 19.8687 10.4312 19.8687 10.3938 19.8687C10.3301 19.8725 10.2665 19.8763 10.1991 19.8763C10.1542 19.8801 10.1093 19.8801 10.0643 19.8801H9.85468C9.73114 19.8801 9.60759 19.8763 9.4803 19.8725C9.43163 19.8687 9.37922 19.8649 9.33055 19.8649C9.25568 19.8573 9.17706 19.8573 9.10219 19.8497C9.04603 19.846 8.98987 19.8384 8.93372 19.8346C8.86259 19.827 8.79145 19.8232 8.72032 19.8156C8.66042 19.808 8.60427 19.8004 8.54437 19.7928C8.47698 19.7815 8.40585 19.7739 8.33846 19.7625L8.30477 19.7587C7.75818 19.6752 7.20785 19.5501 6.66875 19.3756C6.50777 19.3262 6.34679 19.2731 6.18955 19.2124C6.03231 19.1555 5.87882 19.091 5.72158 19.0266C5.6467 18.9962 5.56809 18.9621 5.49321 18.9279C4.65461 18.5448 3.86094 18.0592 3.1309 17.4674L3.11593 17.456C3.02608 17.3802 2.93249 17.3043 2.84264 17.2246C2.8314 17.2133 2.82017 17.2057 2.80894 17.1981C2.80894 16.0638 2.8052 14.9296 2.80894 13.7991C2.81643 12.5662 2.79397 11.3333 2.8314 10.1004C3.66626 11.3068 4.4824 12.9114 5.5007 15.2975ZM2.8052 17.9378C3.91709 18.8293 5.16002 19.497 6.50028 19.9218C7.06559 20.1039 7.64212 20.2367 8.2224 20.3239C8.23363 20.3277 8.24112 20.3277 8.25235 20.3315C8.29728 20.3391 8.3422 20.3429 8.38713 20.3505C8.46575 20.3619 8.54437 20.3733 8.62673 20.3846C8.68663 20.3922 8.74653 20.396 8.80643 20.4036C8.87382 20.4112 8.9412 20.4188 9.00859 20.4226C9.07598 20.4302 9.14337 20.4302 9.20701 20.434C9.27065 20.4377 9.3343 20.4453 9.39794 20.4453C9.46159 20.4491 9.52897 20.4491 9.59262 20.4491C9.64503 20.4529 9.69744 20.4529 9.74985 20.4529H9.82847L9.86591 20.4605L9.90335 20.4529H9.9333C11.6442 20.4529 13.3588 20.0736 15.0323 19.33H15.0959L15.1409 19.2807C15.227 19.2428 15.3131 19.2011 15.3992 19.1593C15.4254 19.1442 15.4553 19.129 15.4853 19.1176C15.5414 19.0873 15.5976 19.0607 15.6537 19.0341C15.6912 19.0152 15.7249 18.9962 15.7623 18.9772C15.811 18.9545 15.8597 18.9279 15.9121 18.9014C15.9458 18.8824 15.9832 18.8596 16.0206 18.8407C16.0693 18.8141 16.118 18.7914 16.1629 18.7648C16.2041 18.742 16.2415 18.7193 16.279 18.7003C16.2939 18.6927 16.3126 18.6813 16.3276 18.6738C16.3426 18.7534 16.3651 18.8293 16.395 18.8976C15.0922 20.0432 13.5198 20.8323 11.8389 21.1927C11.0602 21.1964 10.2777 21.1964 9.49902 21.1964H7.63838C7.63838 21.1964 7.63463 21.1964 7.63089 21.1964C5.77774 20.7981 4.0893 19.8877 2.74155 18.5713C2.78274 18.3817 2.8052 18.173 2.8052 17.9378ZM1.26652 21.1889C1.11302 21.1889 0.828498 21.314 0.843473 21.003C0.858448 20.7185 0.626336 20.3277 1.09056 20.1646C1.18041 20.1381 1.26277 20.1001 1.34888 20.0622C1.92542 19.827 2.30728 19.5425 2.5319 19.1442C2.98864 19.5728 3.48282 19.956 4.01069 20.2974C4.55727 20.6502 5.12632 20.9499 5.72158 21.1927C4.23905 21.1964 2.75279 21.1927 1.26652 21.1889ZM10.9366 22.3042C10.6334 22.8732 10.1692 23.1842 9.52897 23.188C8.88879 23.188 8.42082 22.8846 8.11384 22.3117C7.99778 22.0955 8.04645 22.0045 8.29728 22.0083C8.71284 22.0158 9.12465 22.0121 9.5402 22.0121C9.94079 22.0121 10.3376 22.0158 10.7382 22.0083C10.9628 22.0045 11.0639 22.0614 10.9366 22.3042ZM18.2107 21.0485C18.1284 21.2989 17.9262 21.1889 17.7802 21.1889C16.4399 21.1927 15.1034 21.1927 13.7632 21.1927C14.8226 20.7602 15.811 20.1532 16.687 19.3945C16.9266 19.6752 17.2748 19.8877 17.7802 20.0963C18.1808 20.2594 18.3455 20.6312 18.2107 21.0485Z" fill="#969696"/>
</svg>
