<svg width="22" height="21" viewBox="0 0 22 21" fill="none" xmlns="http://www.w3.org/2000/svg">
<path d="M21.931 10.7173C22.0248 10.5658 22.0212 10.4385 21.931 10.2973C21.8697 10.2078 21.7759 10.1183 21.6785 10.0219L21.6496 9.99434C18.2836 6.78225 14.9175 3.5667 11.5515 0.354605C11.3026 0.117054 11.1511 0 10.9995 0C10.848 0 10.6965 0.120497 10.4475 0.358047C7.09235 3.55982 3.73714 6.76159 0.385549 9.96336L0.324218 10.0219C0.223201 10.1148 0.1294 10.2044 0.0752835 10.2939C-0.0437721 10.4867 -0.0221256 10.645 0.143831 10.8068C0.313395 10.9686 0.475743 10.9927 0.674169 10.8791C0.782401 10.8172 0.890634 10.7139 1.00247 10.6037L2.52133 9.15087C5.09366 6.69962 7.75256 4.1623 10.3537 1.65597C10.5197 1.49416 10.729 1.32891 10.9995 1.32891C11.2665 1.32891 11.4685 1.48727 11.6489 1.65941C13.9435 3.86967 16.2488 6.06615 18.5505 8.26608L21.0182 10.6244C21.2347 10.8309 21.3501 10.9411 21.5269 10.9377C21.7181 10.9342 21.8408 10.8654 21.931 10.7173Z" fill="url(#paint0_linear_1729_609)"/>
<path d="M6.16876 20.9974C7.23666 21.0009 8.30816 21.0009 9.37605 20.9974H12.4823C13.6188 20.9974 14.7552 21.0009 15.8916 20.994C17.9372 20.9836 19.5499 19.4447 19.5607 17.4892C19.5679 16.2912 19.5643 15.0931 19.5643 13.895V13.0446C19.5643 12.7899 19.503 12.5936 19.3948 12.4903C19.3262 12.4249 19.2288 12.3905 19.1025 12.3974C18.9726 12.4008 18.666 12.4077 18.6624 13.0343C18.6624 13.7779 18.6624 14.5216 18.6624 15.2652V17.3378C18.6588 19.0109 17.4826 20.1333 15.7365 20.1333C12.5797 20.1333 9.42295 20.1333 6.26256 20.1333C4.52002 20.1333 3.34751 19.0041 3.34751 17.3274V15.3857C3.34751 14.6008 3.34751 13.8124 3.34751 13.0274C3.34751 12.4043 3.01199 12.4008 2.90375 12.4008C2.78831 12.3974 2.68007 12.4318 2.61153 12.4972C2.5069 12.5936 2.44918 12.7761 2.44918 13.0102C2.44557 14.4906 2.44196 15.9744 2.44918 17.4548C2.44918 19.4654 4.05102 20.9905 6.16876 20.9974Z" fill="url(#paint1_linear_1729_609)"/>
<defs>
<linearGradient id="paint0_linear_1729_609" x1="3.9854e-08" y1="10.8889" x2="22" y2="10.8889" gradientUnits="userSpaceOnUse">
<stop stop-color="#9E65EF"/>
<stop offset="0.497196" stop-color="#4443F0"/>
<stop offset="1" stop-color="#00E584"/>
</linearGradient>
<linearGradient id="paint1_linear_1729_609" x1="3.9854e-08" y1="10.8889" x2="22" y2="10.8889" gradientUnits="userSpaceOnUse">
<stop stop-color="#9E65EF"/>
<stop offset="0.497196" stop-color="#4443F0"/>
<stop offset="1" stop-color="#00E584"/>
</linearGradient>
</defs>
</svg>
