<svg width="23" height="26" viewBox="0 0 23 26" fill="none" xmlns="http://www.w3.org/2000/svg">
<path d="M0.0068998 8.42425C0.0068998 7.35565 0.0200456 6.28705 0.002518 5.21845C-0.00624583 4.7732 0.16903 4.53149 0.615985 4.41276C4.27926 3.42896 7.74974 1.99992 11.0274 0.13835C11.3517 -0.0482309 11.6277 -0.0439904 11.952 0.13835C15.2209 1.97448 18.6738 3.40776 22.3152 4.39155C22.7709 4.51453 22.9813 4.73503 22.9769 5.21421C22.955 7.2666 23.0645 9.32748 22.9374 11.3714C22.5212 18.0501 19.077 22.7825 12.881 25.6788C11.952 26.1113 11.0318 26.1028 10.0984 25.6788C4.87082 23.3041 1.56686 19.4325 0.335543 13.9454C-0.0763565 12.122 0.0068998 10.2689 0.0068998 8.42425ZM21.8332 9.27235C21.8332 7.86875 21.8157 6.88072 21.842 5.89692C21.8507 5.53224 21.7368 5.36686 21.3643 5.26085C18.4767 4.45516 15.7204 3.33991 13.0606 1.9872C12.5348 1.72005 12.009 1.24512 11.4831 1.24512C10.9573 1.24512 10.4315 1.72429 9.91002 1.99144C7.25458 3.35264 4.49398 4.45516 1.61068 5.26933C1.3872 5.33294 1.12867 5.34142 1.13743 5.69338C1.1944 8.03413 0.949011 10.3876 1.2908 12.7114C2.1146 18.2834 5.27396 22.2101 10.4797 24.6483C11.1632 24.9664 11.8074 24.9579 12.491 24.6483C16.9211 22.6214 19.8789 19.3689 21.2592 14.8019C21.8595 12.8556 21.8683 10.854 21.8332 9.27235Z" fill="white"/>
<path d="M6.33876 11.3671C6.89965 11.3671 7.3466 11.6046 7.73221 11.982C8.27557 12.5121 8.83645 13.0252 9.36228 13.5722C9.59452 13.8139 9.73474 13.8139 9.97575 13.5764C11.711 11.876 13.4681 10.1925 15.2121 8.49634C15.6854 8.03837 16.2244 7.77122 16.9079 7.86875C17.609 7.97052 18.1042 8.34368 18.3583 8.97552C18.6169 9.62855 18.5249 10.2561 18.0385 10.782C17.6178 11.2357 17.1577 11.6555 16.7151 12.088C14.8835 13.8648 13.0475 15.6373 11.2158 17.4141C10.1686 18.4275 9.17386 18.4233 8.1222 17.4098C7.1056 16.426 6.08461 15.4507 5.07677 14.4585C4.49398 13.886 4.33185 13.2033 4.64734 12.4485C4.9234 11.77 5.59384 11.3629 6.33876 11.3671ZM9.66463 17.0664C9.97575 17.0621 10.1729 16.8671 10.3701 16.6762C12.5611 14.5517 14.7564 12.4315 16.9474 10.3113C17.0832 10.1798 17.2278 10.0568 17.3023 9.8745C17.425 9.58614 17.3505 9.33596 17.1314 9.13241C16.9079 8.92887 16.6406 8.85678 16.3602 9.01368C16.1981 9.10697 16.0535 9.23843 15.9176 9.36564C14.0334 11.1848 12.1492 13.0082 10.265 14.8274C9.78733 15.2896 9.5507 15.2896 9.07746 14.8359C8.35444 14.1447 7.64457 13.4407 6.91717 12.7538C6.55786 12.4145 6.13719 12.3806 5.84361 12.6435C5.51496 12.9361 5.52811 13.3347 5.91372 13.7121C6.96099 14.7383 8.01703 15.7518 9.06869 16.7695C9.23521 16.9307 9.41924 17.0579 9.66463 17.0664Z" fill="white"/>
<path d="M2.24167 7.66521C2.24606 6.04534 2.08393 6.29553 3.63512 5.77395C4.21353 5.57889 4.78757 5.37535 5.3616 5.1718C5.99697 4.94706 6.30371 4.99794 6.44831 5.35838C6.59729 5.71882 6.40011 5.97325 5.78226 6.19376C5.1425 6.42275 4.5115 6.67717 3.8586 6.85527C3.45108 6.96553 3.34153 7.15635 3.37659 7.53375C3.41164 7.90267 3.38974 8.28008 3.38097 8.649C3.37659 9.00096 3.21446 9.25115 2.82885 9.25963C2.44324 9.26811 2.26358 9.0264 2.24606 8.67444C2.22853 8.33944 2.24167 8.0002 2.24167 7.66521Z" fill="white"/>
<path d="M13.994 21.5613C13.9764 21.4044 14.1123 21.2475 14.2788 21.116C15.4882 20.1789 16.5574 19.1103 17.4206 17.8593C17.6178 17.571 17.9158 17.4607 18.2356 17.6727C18.5599 17.8848 18.5468 18.1858 18.3496 18.4784C17.425 19.8566 16.2506 21.0142 14.9185 22.0235C14.7301 22.1677 14.5154 22.2228 14.2832 22.0913C14.1035 21.9853 14.0071 21.8369 13.994 21.5613Z" fill="white"/>
<path d="M13.7223 22.5154C13.6916 22.8546 13.4857 23.0539 13.1483 23.0666C12.7933 23.0794 12.583 22.8546 12.5874 22.5239C12.5874 22.1931 12.8152 21.9811 13.157 21.9726C13.5076 21.9684 13.696 22.1719 13.7223 22.5154Z" fill="white"/>
<path d="M7.55693 4.35763C7.89434 4.40852 8.11782 4.58662 8.10467 4.92585C8.09153 5.26509 7.8549 5.45591 7.51311 5.44319C7.18885 5.43471 6.99167 5.21845 6.98728 4.91313C6.9829 4.57389 7.21514 4.40427 7.55693 4.35763Z" fill="white"/>
</svg>
