<svg width="26" height="27" viewBox="0 0 26 27" fill="none" xmlns="http://www.w3.org/2000/svg">
<path d="M21.6078 8.08344C22.1458 7.8307 22.6031 7.65639 23.1096 7.69125C24.0914 7.75226 24.8221 8.2011 25.2211 9.08134C25.6246 9.96595 25.4677 10.7852 24.8535 11.5347C24.7863 11.6175 24.7145 11.6916 24.6338 11.7613C24.4904 11.8877 24.4052 11.9966 24.5845 12.1709C24.7638 12.3452 24.8804 12.2494 25.0104 12.1186C25.2614 11.8615 25.5484 11.7308 25.8397 12.0271C26.158 12.3539 25.9473 12.6285 25.6828 12.8812C24.4545 14.0709 23.2352 15.2736 21.9934 16.4545C21.7109 16.7247 21.5944 16.9905 21.5944 17.3783C21.6123 19.9798 21.6034 22.5857 21.6034 25.1872C21.6034 26.4553 21.034 27 19.716 27C13.7582 27 7.80482 27 1.84698 27C0.573818 27 0 26.4422 0 25.2134C0 17.4045 0 9.59555 0 1.78228C0 0.553422 0.578301 0 1.85146 0C7.82724 0 13.8075 0 19.7833 0C21.0116 0 21.5989 0.566495 21.6034 1.75178C21.6078 3.83473 21.6078 5.91769 21.6078 8.08344ZM20.514 15.7965C20.3392 15.9577 20.1957 16.0797 20.0657 16.2105C18.5056 17.7269 16.8963 19.2042 15.4034 20.7773C14.5293 21.6967 13.5609 22.2414 12.2878 22.4114C11.5077 22.516 10.6605 22.5683 10.0866 23.2655C9.90285 23.4877 9.598 23.4006 9.40972 23.1827C9.21247 22.9561 9.23937 22.6816 9.46352 22.5116C9.99699 22.1151 10.0732 21.5442 10.1853 20.969C10.2884 20.4374 10.4453 19.9145 10.5394 19.3828C10.6201 18.9078 10.8443 18.5505 11.1984 18.2106C14.2065 15.3041 17.2011 12.3801 20.2047 9.46917C20.4647 9.21643 20.5947 8.9724 20.5902 8.602C20.5723 6.35345 20.5812 4.10055 20.5812 1.852C20.5812 1.08941 20.4826 0.997902 19.6847 0.997902C13.7716 0.997902 7.85414 0.997902 1.94112 0.997902C1.13867 0.997902 1.04005 1.08941 1.04005 1.852C1.04005 9.62169 1.04005 17.3914 1.04005 25.1611C1.04005 25.8888 1.14764 25.989 1.90077 25.9934C4.06604 25.9977 6.23131 25.9934 8.39209 25.9934C12.1623 25.9934 15.9369 25.989 19.7071 25.9977C20.2226 25.9977 20.5902 25.9237 20.5857 25.3005C20.5723 22.9474 20.5812 20.5943 20.5768 18.2368C20.5768 18.093 20.635 17.9448 20.3885 17.8489C19.6712 17.5657 19.6309 17.3434 20.2002 16.8031C20.4781 16.546 20.6754 16.2845 20.514 15.7965ZM14.0047 20.6509C14.1123 20.5638 14.211 20.4897 14.3006 20.4069C16.6318 18.1409 18.9584 15.8749 21.294 13.6133C21.5227 13.3911 21.554 13.2516 21.303 13.025C20.8323 12.6023 20.375 12.1622 19.9402 11.7003C19.6981 11.4432 19.5457 11.5086 19.326 11.7221C17.0038 13.9924 14.6727 16.2584 12.3371 18.52C12.1264 18.7248 12.0905 18.8468 12.3281 19.0604C12.8168 19.4961 13.2695 19.9668 13.7403 20.4199C13.8165 20.494 13.8972 20.5594 14.0047 20.6509ZM24.3918 10.0357C24.3559 9.52582 24.1407 9.10749 23.661 8.86782C23.1679 8.61943 22.6344 8.60636 22.2175 8.9724C21.5989 9.50839 21.0385 10.1141 20.4512 10.6893C20.8233 11.282 21.4196 11.6741 21.8813 12.184C21.9396 12.245 22.0068 12.2973 22.0606 12.3627C22.2355 12.5762 22.3834 12.5587 22.5717 12.367C23.0424 11.8833 23.5355 11.4214 24.0107 10.9464C24.2662 10.6937 24.3649 10.3799 24.3918 10.0357ZM12.8571 21.3612C12.355 20.8775 11.8529 20.3982 11.3553 19.9188C11.2477 20.4069 11.1401 20.9342 11.0101 21.4571C10.9519 21.6924 11.0191 21.7708 11.2522 21.7185C11.8126 21.5922 12.364 21.4701 12.8571 21.3612ZM21.684 15.4217C22.4282 14.6766 23.1051 13.9968 23.7776 13.317C23.9031 13.1906 24.0914 13.086 23.8628 12.8769C23.6341 12.6633 23.5265 12.8507 23.3965 12.9771C22.881 13.4739 22.3834 13.9837 21.8499 14.463C21.5765 14.7071 21.5675 14.9685 21.684 15.4217Z" fill="white"/>
<path d="M10.7994 4.00032C12.9378 4.00032 15.0807 4.00032 17.219 4.00032C17.6135 4.00032 18.0035 4.04826 17.9811 4.53196C17.9587 5.0113 17.5418 5.00694 17.1607 5.00694C13.7582 5.00258 10.3556 5.00694 6.94858 5.00694C6.06992 5.00694 5.19126 5.00258 4.31708 5.00694C3.93155 5.0113 3.59981 4.91107 3.61774 4.47531C3.63119 4.07876 3.95397 4.00032 4.3126 4.00032C6.47787 4.00032 8.63865 4.00032 10.7994 4.00032Z" fill="white"/>
<path d="M10.8712 6.49726C12.9692 6.49726 15.0672 6.49726 17.1652 6.49726C17.5463 6.49726 17.9677 6.4929 17.9811 6.97224C17.9991 7.49952 17.5597 7.49952 17.1563 7.49952C12.9199 7.49952 8.679 7.49952 4.44261 7.49952C4.06156 7.49952 3.64016 7.50387 3.62671 7.02453C3.60878 6.4929 4.04811 6.49726 4.45157 6.49726C6.58994 6.50161 8.73279 6.49726 10.8712 6.49726Z" fill="white"/>
<path d="M10.7412 10.0008C8.64314 10.0008 6.54511 10.0008 4.44709 10.0008C4.04362 10.0008 3.6043 9.99645 3.62671 9.46917C3.64912 8.98983 4.07052 8.99855 4.44709 8.99855C8.68348 9.0029 12.9244 9.0029 17.1607 8.99855C17.5642 8.99855 18.0035 9.0029 17.9811 9.53018C17.9587 10.0095 17.5373 10.0052 17.1607 10.0008C15.0179 10.0008 12.8795 10.0008 10.7412 10.0008Z" fill="white"/>
<path d="M6.94858 12.5021C6.06992 12.5021 5.19574 12.4977 4.31708 12.5021C3.93155 12.5065 3.59981 12.4106 3.61774 11.9748C3.63119 11.5826 3.94948 11.4955 4.30812 11.4998C6.06095 11.5042 7.81379 11.5042 9.56662 11.4998C9.95216 11.4998 10.2839 11.5913 10.266 12.0271C10.2525 12.4193 9.93423 12.5065 9.57559 12.5021C8.70141 12.4977 7.82724 12.5021 6.94858 12.5021Z" fill="white"/>
</svg>
