<svg width="26" height="25" viewBox="0 0 26 25" fill="none" xmlns="http://www.w3.org/2000/svg">
<path d="M20.2267 25C19.0962 25 18.3694 24.8145 17.7099 24.4133C10.7026 20.1896 5.00519 14.7061 0.595309 7.98015C0.00313788 7.07847 -0.113502 6.09481 0.097347 5.07232C0.496614 3.15247 1.49702 1.59501 3.22419 0.529384C4.77191 -0.424073 6.04597 -0.0789302 6.92974 1.47853C7.61163 2.6779 8.27558 3.88158 8.95748 5.07664C9.64834 6.28895 9.67975 7.46675 8.89916 8.67044C8.19483 9.75764 8.32045 10.737 9.20422 11.7077C10.6353 13.2738 12.1696 14.7406 13.7935 16.1169C14.8119 16.9797 15.8482 17.0919 16.9966 16.4016C18.2124 15.6768 19.4102 15.6811 20.6439 16.324C21.9628 17.0143 23.2907 17.6916 24.6096 18.3905C25.9734 19.111 26.3772 20.2413 25.628 21.5486C24.3898 23.7187 22.389 24.7757 20.2267 25ZM15.6373 18.0109C14.6459 18.0238 13.7935 17.683 13.0533 17.0574C11.3531 15.6164 9.74255 14.0805 8.24867 12.4411C7.05087 11.1253 6.87591 9.60664 7.82248 8.12684C8.38774 7.24241 8.35185 6.43132 7.84491 5.56415C7.16751 4.40361 6.52599 3.2215 5.86204 2.05233C5.31024 1.07298 4.80331 0.939241 3.82084 1.55618C2.47949 2.39747 1.70787 3.62704 1.32655 5.09821C1.08878 6.01284 1.25926 6.84118 1.79759 7.65227C6.07289 14.0374 11.5191 19.2836 18.2034 23.3433C18.67 23.6281 19.1634 23.8481 19.7197 23.8265C21.8417 23.7445 23.4612 22.7997 24.5334 21.0524C24.9954 20.3017 24.807 19.8487 23.9905 19.4216C22.6716 18.727 21.3437 18.0497 20.0248 17.3551C19.2083 16.928 18.4232 16.915 17.6382 17.4198C17.037 17.7951 16.3686 18.0022 15.6373 18.0109Z" fill="white"/>
<path d="M17.8356 13.2608C16.6333 13.2608 15.4355 13.2651 14.2332 13.2608C13.2462 13.2565 12.7797 12.8035 12.7752 11.8501C12.7707 11.1037 12.7617 10.353 12.7797 9.60664C12.8245 7.65658 14.4485 6.0905 16.4718 6.04304C17.3825 6.02147 18.2976 6.02578 19.2128 6.04304C21.2316 6.08187 22.8735 7.64364 22.9318 9.58938C22.9542 10.3703 22.9453 11.1512 22.9363 11.932C22.9273 12.7733 22.4294 13.2522 21.5366 13.2608C20.3029 13.2695 19.0692 13.2608 17.8356 13.2608ZM17.8221 12.0873C18.9885 12.0873 20.1549 12.083 21.3258 12.0917C21.586 12.0917 21.734 12.0528 21.725 11.7508C21.7071 11.0347 21.743 10.3185 21.7071 9.60232C21.6443 8.27352 20.5542 7.24672 19.1769 7.21652C18.2976 7.19927 17.4183 7.19927 16.5391 7.21652C15.108 7.24672 14.0268 8.29509 13.9999 9.67998C13.9864 10.3487 14.0134 11.0131 13.9864 11.6818C13.973 12.0097 14.0941 12.096 14.4216 12.0917C15.5566 12.0787 16.6871 12.0873 17.8221 12.0873Z" fill="white"/>
<path d="M17.867 0.0850125C19.4147 0.0936411 20.6708 1.29733 20.6708 2.78144C20.6753 4.28281 19.3967 5.49944 17.8266 5.49081C16.2789 5.48218 15.0272 4.27418 15.0227 2.79438C15.0272 1.2887 16.2968 0.0806982 17.867 0.0850125ZM17.7862 4.31732C18.6924 4.34321 19.4236 3.68744 19.4506 2.82458C19.4775 1.99624 18.7776 1.28438 17.9118 1.26281C17.0056 1.23693 16.2699 1.90133 16.2475 2.75555C16.2295 3.58821 16.9204 4.29144 17.7862 4.31732Z" fill="white"/>
</svg>
