<svg width="28" height="27" viewBox="0 0 28 27" fill="none" xmlns="http://www.w3.org/2000/svg">
<path d="M21.5448 26.9956C20.0112 26.9956 18.4731 27 16.9396 26.9956C15.7191 26.9913 15.0839 26.4139 15.0794 25.2634C15.0657 22.9539 15.0657 20.6399 15.0794 18.3303C15.0839 17.2411 15.6193 16.6944 16.7672 16.6331C17.1846 16.6113 17.2436 16.4407 17.239 16.1038C17.2254 15.2727 17.2254 14.4416 17.2345 13.6105C17.2617 11.1479 19.1174 9.33695 21.5856 9.35444C23.9858 9.37194 25.8324 11.231 25.846 13.6543C25.8505 14.4854 25.8551 15.3165 25.8415 16.1476C25.8369 16.4625 25.8959 16.6069 26.2816 16.6331C27.4794 16.7031 27.9966 17.2674 27.9966 18.4353C28.0011 20.6836 28.0011 22.9364 27.9966 25.1847C27.9966 26.4007 27.3614 26.9956 26.0865 27C24.5711 26.9956 23.0557 26.9956 21.5448 26.9956ZM21.5221 25.9414C23.0557 25.9414 24.5892 25.9283 26.1228 25.9458C26.6854 25.9502 26.9168 25.7359 26.9122 25.1891C26.8986 22.9407 26.9077 20.6924 26.9031 18.444C26.9031 17.7529 26.7806 17.6392 26.0411 17.6392C23.0375 17.6348 20.0339 17.6348 17.0303 17.6392C16.2862 17.6392 16.1501 17.7748 16.1456 18.4878C16.1411 20.6968 16.1411 22.9014 16.1456 25.1103C16.1456 25.819 16.259 25.9327 16.9804 25.9327C18.4958 25.9458 20.0067 25.9414 21.5221 25.9414ZM21.5085 16.6156C22.4114 16.6156 23.3143 16.6025 24.2126 16.6244C24.6119 16.6331 24.7707 16.5281 24.7571 16.117C24.7253 15.229 24.7662 14.3367 24.7389 13.4487C24.6936 11.7471 23.2961 10.4043 21.5675 10.3868C19.8116 10.3649 18.3597 11.699 18.3007 13.4268C18.269 14.3367 18.3098 15.2465 18.2826 16.1563C18.269 16.5456 18.4323 16.6331 18.7998 16.6288C19.7027 16.6025 20.6056 16.6156 21.5085 16.6156Z" fill="white"/>
<path d="M14.2128 9.77437C14.8843 10.0543 15.5195 10.308 16.1456 10.5836C16.4768 10.7279 16.74 10.951 16.5358 11.3447C16.3407 11.7209 16.0185 11.6903 15.6783 11.524C15.3788 11.3797 15.0703 11.2485 14.7618 11.1172C13.9587 10.7804 13.2282 10.6317 12.3344 11.091C11.1593 11.6903 9.87526 11.5284 8.70467 10.8985C8.35532 10.7104 8.06494 10.6973 7.69743 10.8067C4.84811 11.6596 2.6975 13.3218 1.3409 15.9026C0.887182 16.7775 1.01876 17.1974 1.88989 17.7267C3.8454 18.9165 6.02776 19.3583 8.28726 19.577C9.81627 19.7213 11.3498 19.7694 12.8834 19.5945C13.2509 19.5551 13.5821 19.6251 13.632 20.0494C13.6819 20.4781 13.3689 20.6137 13.0013 20.6399C9.50775 20.8805 6.07313 20.688 2.79278 19.3626C2.20749 19.1264 1.6585 18.829 1.13673 18.4922C-0.0066343 17.7529 -0.292474 16.7906 0.301891 15.6008C1.67211 12.8757 3.86808 11.0298 6.80815 10.0106C7.27094 9.84873 7.35261 9.735 7.05316 9.34132C6.74463 8.93014 6.57222 8.43586 6.52685 7.92408C6.39527 6.44997 6.33629 4.96274 6.54046 3.49738C6.83084 1.41088 8.75005 -0.0676039 10.9324 0.00238342C13.0694 0.0723708 14.848 1.66896 15.034 3.75108C15.1474 5.04147 15.1066 6.34499 15.0476 7.63975C15.0068 8.42711 14.6756 9.12261 14.2128 9.77437ZM7.5477 5.67136C7.5477 6.24001 7.53409 6.80428 7.55224 7.37293C7.60215 9.022 8.95875 10.3168 10.6602 10.3649C12.3934 10.413 13.8861 9.16635 13.9723 7.5129C14.0358 6.31874 14.0313 5.12021 13.9723 3.93042C13.8906 2.2726 12.4161 1.02157 10.6783 1.06094C8.97237 1.10031 7.60669 2.3907 7.55224 4.0354C7.53409 4.57781 7.55224 5.12458 7.5477 5.67136Z" fill="white"/>
<path d="M23.1419 20.7405C23.1282 21.2785 22.9331 21.7553 22.4477 22.0265C22.1119 22.2102 22.0575 22.4421 22.0666 22.7658C22.0847 23.2688 22.0666 23.7762 22.0711 24.2836C22.0711 24.6336 21.9259 24.896 21.5448 24.9048C21.1591 24.9135 21.0049 24.6423 20.9958 24.3011C20.9867 23.9556 20.9776 23.6144 20.9958 23.2688C21.0275 22.6958 21.0003 22.219 20.3969 21.8209C19.8116 21.436 19.7798 20.6049 20.1337 20.0013C20.5012 19.3758 21.2589 19.0739 21.9622 19.2664C22.6518 19.4501 23.1328 20.0494 23.1419 20.7405Z" fill="white"/>
</svg>
