<svg width="26" height="22" viewBox="0 0 26 22" fill="none" xmlns="http://www.w3.org/2000/svg">
<path d="M25.9741 4.00365C25.9383 2.20873 24.4458 0.465215 22.6485 0.118225C22.4244 0.0753871 21.9089 -0.023141 21.7745 0.499486C21.64 1.01783 22.133 1.16776 22.3482 1.22774C23.9527 1.69896 24.7729 2.74421 24.7864 4.33351C24.7954 5.42588 24.7954 6.51826 24.7909 7.61063V8.8101C24.7909 9.94103 24.3292 10.7978 23.379 11.4318C22.8322 11.7959 22.1778 11.9673 21.389 11.9501C21.0708 11.9459 20.8422 11.9716 20.6808 12.1172C20.524 12.2629 20.4881 12.4771 20.4881 12.7941C20.4836 13.2738 20.4791 13.7494 20.4881 14.2291C20.4971 14.6618 20.3581 14.7989 20.1475 14.876C19.8696 14.9745 19.6455 14.9017 19.39 14.6147C19.0987 14.2891 18.8029 13.9678 18.507 13.6465C18.1216 13.231 17.7406 12.8112 17.3641 12.3871C17.0907 12.0744 16.768 11.9501 16.3288 11.9416C14.8273 11.9544 13.3034 11.9587 11.7974 11.9459C9.88359 11.9287 8.54346 10.6436 8.53898 8.81439C8.5345 7.70488 8.5345 6.59108 8.53898 5.48157V4.47916C8.53898 2.38865 9.84773 1.13778 12.0439 1.13778H20.6584C20.8825 1.14634 21.4204 1.14206 21.4249 0.576595C21.4249 0.405242 21.3756 0.268159 21.2725 0.169631C21.0932 0.002562 20.8467 0.00256206 20.6181 0.00256206C19.6858 0.00256206 18.7446 0.00256206 17.8078 0.00256206C15.7371 -0.00172177 13.6664 -0.00172178 11.5957 0.0111297C9.4309 0.028265 7.61568 1.61328 7.36916 3.6995C7.29297 4.36349 7.31538 5.02749 7.33331 5.68291C7.33779 5.85855 7.30642 5.89282 7.30193 5.8971C7.29297 5.90567 7.24815 5.93566 7.05542 5.92709C6.23521 5.90567 5.40155 5.90996 4.59029 5.91852H4.40205C1.95485 5.93994 0.023091 7.79056 0.00516281 10.1338C0.000680769 10.9906 0.000680773 11.8516 0.000680773 12.7084V13.9421C-0.00380127 14.122 0.0096448 14.3491 0.170998 14.5076C0.278568 14.6104 0.426475 14.6618 0.605757 14.6575C1.18842 14.6532 1.1929 14.1306 1.19739 13.9336C1.19739 13.7708 1.19739 13.608 1.19739 13.4452V13.1239C1.19739 12.7855 1.19739 12.4471 1.1929 12.1129C1.18842 11.3675 1.17946 10.6007 1.22876 9.85107C1.32288 8.36459 2.51511 7.20795 4.07038 7.10086C4.72027 7.05802 5.39258 7.05802 6.04248 7.0623C6.42793 7.0623 6.81339 7.06659 7.19885 7.05802C7.27056 7.05374 7.30193 7.06659 7.30642 7.06659C7.3109 7.07516 7.32434 7.10514 7.31986 7.22081C7.3109 7.76485 7.30641 8.31318 7.31986 8.84866C7.36916 11.3033 9.26507 13.0939 11.8288 13.1068C12.1336 13.1068 12.4428 13.1153 12.7476 13.1196C13.5813 13.1368 14.4418 13.1496 15.2845 13.0854C16.1809 13.0168 16.7411 13.2653 17.1535 13.9121C17.1983 13.9807 17.2476 14.0407 17.3014 14.1006C17.3955 14.2077 17.4493 14.2763 17.4582 14.3791C17.5344 15.3558 17.2386 16.2425 16.6246 16.8808C16.0105 17.5191 15.1052 17.8704 14.0833 17.8747C12.5907 17.8832 11.0937 17.8832 9.60122 17.8704C9.20232 17.8747 8.91099 17.9946 8.65551 18.2816C8.2342 18.7571 7.80392 19.2284 7.36916 19.6953C7.1092 19.978 6.84925 20.2565 6.59377 20.5435C6.34278 20.8219 6.14108 20.8991 5.88112 20.8134C5.59876 20.7191 5.49567 20.5392 5.50463 20.1494C5.50911 19.8581 5.50911 19.5625 5.50911 19.2712V18.9071C5.50911 18.0118 5.39258 17.8961 4.46032 17.8747C2.88264 17.8404 1.76661 17.0308 1.31392 15.6042L1.30496 15.5528C1.23773 15.3301 1.09878 14.8674 0.551972 14.9959C0.368208 15.0388 0.238229 15.1287 0.162034 15.253C0.027573 15.4757 0.112732 15.7499 0.166516 15.9298C0.632649 17.4206 1.68145 18.4187 3.28602 18.8942C3.45634 18.9456 3.6401 18.9456 3.8149 18.9456C4.07038 18.9456 4.23173 18.9542 4.28103 19.0484C4.37516 19.2241 4.35275 19.4854 4.32585 19.7596C4.31241 19.9009 4.30344 20.038 4.30344 20.1751C4.31241 21.019 4.70235 21.6059 5.4374 21.8758C5.65702 21.9572 5.87664 22 6.0873 22C6.58481 22 7.05542 21.773 7.46777 21.3317L7.82633 20.9462C8.31936 20.4193 8.83031 19.8709 9.30541 19.314C9.49365 19.0913 9.6819 19.0099 10.0181 19.0185C11.4568 19.0356 12.909 19.0313 14.2581 19.0227C16.3377 19.0099 18.0633 17.699 18.5519 15.7542C18.5698 15.6771 18.5788 15.5957 18.5832 15.5143C18.5832 15.5014 18.5832 15.4886 18.5832 15.48C19.1345 16.0455 19.8113 16.2126 20.5374 15.9598C21.2501 15.7156 21.6669 15.1116 21.6803 14.3105L21.6848 14.1306C21.6893 13.8736 21.6983 13.6037 21.6759 13.3381C21.6579 13.1196 21.6579 13.1068 21.9134 13.0811C24.2127 12.8797 25.9159 11.209 25.9652 9.10997C26.01 7.53353 26.01 5.86283 25.9741 4.00365Z" fill="white"/>
<path d="M17.6958 7.5935C18.9642 7.11799 19.5783 5.70862 19.0673 4.45774C18.5653 3.23257 17.1535 2.59428 15.8447 3.00981C14.8766 3.31396 14.155 4.19214 14.0788 5.13887C14.0429 5.61009 14.2222 5.86712 14.6121 5.90567C14.7825 5.92281 14.9259 5.88854 15.0424 5.79858C15.1769 5.69577 15.2531 5.5287 15.2845 5.25881C15.2889 5.21169 15.2934 5.16457 15.3024 5.11745C15.401 4.61196 15.7058 4.27354 16.1988 4.11075C16.7142 3.94368 17.1759 4.02507 17.5613 4.35493C18.0006 4.7319 18.144 5.16885 17.9916 5.6872C17.8258 6.26123 17.4314 6.59537 16.8532 6.65106C16.5394 6.68104 16.3333 6.771 16.2033 6.92951C16.0374 7.12656 16.0464 7.38359 16.0643 7.56351C16.0688 7.60635 16.0688 7.65347 16.0643 7.69631V8.11613C16.0643 8.14183 16.0643 8.17181 16.0643 8.19752C16.0509 8.42456 16.1047 8.6002 16.2257 8.72443C16.2974 8.79725 16.4229 8.88721 16.638 8.89578C16.647 8.89578 16.656 8.89578 16.6694 8.89578C16.8442 8.89578 16.9966 8.83581 17.1042 8.72015C17.2252 8.59163 17.279 8.39886 17.2476 8.19323C17.1893 7.87195 17.279 7.752 17.6958 7.5935Z" fill="white"/>
<path d="M9.39953 14.7304C9.55192 14.7304 9.68638 14.6832 9.78947 14.5933C9.90152 14.4947 9.96875 14.3491 9.97323 14.1777C9.98668 13.8565 9.7805 13.6337 9.42642 13.5823L9.39505 13.578L9.36367 13.5823C9.01407 13.6251 8.80342 13.8393 8.79894 14.1477C8.79445 14.4819 9.02304 14.7175 9.36816 14.7304C9.37712 14.7304 9.39057 14.7304 9.39953 14.7304Z" fill="white"/>
<path d="M11.0937 14.7389L11.1206 14.7346C11.4613 14.6961 11.6719 14.4776 11.6719 14.1563C11.6719 13.985 11.6137 13.8436 11.5016 13.7365C11.394 13.6337 11.2506 13.5823 11.0848 13.5823H11.0803C10.91 13.5823 10.7621 13.638 10.6545 13.7451C10.5469 13.8522 10.4887 13.9935 10.4931 14.1606C10.4976 14.4819 10.7128 14.6961 11.0669 14.7389H11.0937Z" fill="white"/>
<path d="M16.7142 9.17851C16.5394 9.16138 16.3826 9.2085 16.266 9.30703C16.154 9.40127 16.0867 9.53835 16.0688 9.70542C16.0419 10.0224 16.2302 10.2495 16.5932 10.3266L16.6336 10.3351L16.6739 10.3309C17.0325 10.2837 17.2386 10.0738 17.2386 9.75255C17.2386 9.43126 17.0325 9.2085 16.7142 9.17851Z" fill="white"/>
<path d="M7.59327 14.7303C7.92494 14.7303 8.14456 14.5119 8.17145 14.1606V14.1263C8.13559 13.7836 7.8846 13.5694 7.54845 13.5909C7.22126 13.608 7.00164 13.8307 6.99715 14.1477C6.99267 14.4905 7.22574 14.7261 7.57982 14.7346C7.5843 14.7303 7.58878 14.7303 7.59327 14.7303Z" fill="white"/>
</svg>
