<svg width="25" height="24" viewBox="0 0 25 24" fill="none" xmlns="http://www.w3.org/2000/svg">
<path d="M0.0133893 21.5096C0.0178524 22.9155 1.07114 23.9829 2.45916 23.9871C4.71747 23.9957 6.97133 24 9.22964 24C11.2113 24 13.1973 24 15.1789 23.9957H16.9285C17.4774 23.9957 17.7229 23.76 17.7273 23.2327C17.7318 21.7796 17.7318 20.3265 17.7318 18.8734C17.7318 17.7846 17.7318 16.6916 17.7318 15.6028C17.7318 15.3027 17.647 15.1056 17.4462 14.9641C17.3167 14.8698 17.1828 14.8226 17.049 14.8226C16.9552 14.8226 16.8615 14.8441 16.7633 14.8912C16.4732 15.0241 16.3483 15.247 16.3483 15.6328C16.3483 16.3615 16.3483 17.0859 16.3483 17.8146C16.3483 19.152 16.3438 20.5365 16.3616 21.8996C16.3661 22.1268 16.3438 22.3583 16.1831 22.5126C16.0224 22.6712 15.7814 22.6883 15.5672 22.6883C13.0902 22.6755 10.6534 22.6755 8.59589 22.6755H2.78496C1.76738 22.6755 1.37016 22.294 1.37016 21.3167C1.37016 15.1056 1.37016 8.89016 1.37016 2.67905C1.37016 1.69745 1.76292 1.31595 2.77603 1.31595C4.78888 1.31595 6.80173 1.31595 8.81458 1.31595H14.9201C15.96 1.31595 16.3438 1.69745 16.3438 2.71763C16.3438 4.56939 16.3438 6.42543 16.3438 8.27719C16.3438 8.51724 16.3438 8.7187 16.4688 8.87301C16.6294 9.07019 16.808 9.16878 17.0043 9.16878C17.0713 9.16878 17.1471 9.15592 17.223 9.13449C17.5622 9.02733 17.7184 8.80014 17.7184 8.42293C17.7184 7.47562 17.7184 6.52831 17.7184 5.581C17.7184 4.60368 17.7184 3.62636 17.7184 2.64476C17.714 0.990177 16.6919 0 14.9826 0C13.0233 0 11.064 0 9.10468 0C6.99811 0 4.88707 0 2.7805 0C1.01312 0 0 0.968744 0 2.65333C0 4.83944 0 7.02554 0 9.21165V14.8269C0.00892616 17.0516 0.00892625 19.2806 0.0133893 21.5096Z" fill="white"/>
<path d="M19.7268 17.0173C19.941 17.0173 20.182 16.8973 20.4141 16.6744C21.82 15.3285 23.2259 13.9825 24.6273 12.628C25.1182 12.1565 25.1227 11.8435 24.6496 11.3849C23.391 10.1718 22.0431 8.87301 20.4007 7.29988C20.1776 7.08555 19.9455 6.9741 19.7313 6.9741C19.5661 6.9741 19.4144 7.04269 19.276 7.17557C18.8877 7.56135 19.1555 7.97714 19.4456 8.26005C19.8027 8.60297 20.1597 8.94588 20.5168 9.28452C20.9765 9.72602 21.4362 10.1675 21.8959 10.609C21.9093 10.6219 21.9271 10.6348 21.945 10.6476C22.0431 10.7205 22.2395 10.8705 22.1726 11.1663L22.1324 11.3335H11.0684C11.0238 11.3335 10.9747 11.3335 10.9301 11.3292C10.8854 11.3292 10.8453 11.3249 10.8006 11.3249C10.7158 11.3249 10.6578 11.3292 10.6043 11.342C10.2026 11.4192 10.0107 11.6378 10.0151 12.0021C10.0196 12.3408 10.2071 12.5508 10.582 12.6365C10.6444 12.6494 10.7114 12.658 10.8096 12.658C10.8542 12.658 10.9033 12.658 10.9479 12.6537C10.997 12.6537 11.0461 12.6494 11.0952 12.6494H22.659L22.2752 13.0138L21.3781 13.8753C20.6998 14.5226 20.066 15.1313 19.4322 15.7442C19.2046 15.9629 19.0886 16.19 19.0886 16.3958C19.0886 16.5501 19.16 16.6958 19.2983 16.8244C19.4233 16.953 19.5706 17.0173 19.7268 17.0173Z" fill="white"/>
</svg>
