<svg width="26" height="25" viewBox="0 0 26 25" fill="none" xmlns="http://www.w3.org/2000/svg">
<path d="M20.2082 22.6144C19.7903 22.5933 19.4427 22.4749 19.1436 22.2466C18.7037 21.9168 18.2549 21.5997 17.8238 21.2573C17.639 21.1093 17.4982 21.1389 17.2827 21.1939C16.3324 21.4264 15.8221 21.938 15.9189 22.9273C15.9409 23.1471 15.8705 23.3797 15.8353 23.6037C15.7033 24.4282 15.0698 24.9778 14.2031 24.9905C13.4068 25.0032 12.6105 25.0032 11.8186 24.9905C10.9256 24.9778 10.2921 24.424 10.1689 23.5657C10.0941 23.0499 10.0105 22.5341 9.97092 22.0183C9.94892 21.7435 9.79494 21.6716 9.57937 21.5405C8.73469 21.029 8.0352 21.1558 7.38409 21.8492C7.19492 22.0521 6.94415 22.2043 6.70219 22.3523C6.05988 22.7497 5.29439 22.7074 4.73567 22.2043C4.10656 21.6378 3.49505 21.0501 2.90554 20.4455C2.35562 19.879 2.32922 19.1222 2.81315 18.4753C3.1607 18.0145 3.52585 17.5663 3.89979 17.1266C4.03177 16.9702 4.09336 16.8307 3.96138 16.6531C3.95258 16.6404 3.94379 16.6235 3.93939 16.6108C3.77661 15.3509 2.75596 15.3552 1.7881 15.2495C0.446291 15.1015 0.00195527 14.5942 0.00195527 13.3004C0.00195527 12.6832 -0.00244409 12.0659 0.00195527 11.4486C0.010754 10.4762 0.587071 9.88008 1.59892 9.77016C2.01686 9.72365 2.4348 9.63064 2.85714 9.62218C3.31468 9.61372 3.47305 9.38965 3.68422 9.02605C4.10216 8.30731 3.96138 7.77883 3.38947 7.25035C3.1475 7.02627 2.95833 6.75146 2.76916 6.48087C2.32922 5.85515 2.37321 5.10259 2.90994 4.55296C3.49065 3.96106 4.08897 3.38607 4.70488 2.82799C5.31199 2.27837 6.10387 2.24032 6.79457 2.71807C7.27411 3.05207 7.74044 3.40298 8.19797 3.76658C8.36515 3.89764 8.49713 3.87228 8.6951 3.82577C9.66296 3.58901 10.1909 3.06898 10.0897 2.05852C10.0633 1.8429 10.1337 1.62728 10.1645 1.42011C10.2921 0.570312 10.9256 0.0206886 11.823 0.00800501C12.6017 -0.0046786 13.3804 -0.000450729 14.1591 0.00800501C15.0786 0.0206886 15.7165 0.57454 15.8353 1.45816C15.9057 1.97396 15.9892 2.48976 16.0332 3.00556C16.0552 3.25924 16.2048 3.32688 16.3984 3.45372C17.2607 4.00334 17.9734 3.83423 18.6333 3.14086C18.8004 2.96329 19.0248 2.82799 19.2316 2.6927C19.9047 2.24878 20.6878 2.27837 21.2817 2.81531C21.8976 3.37339 22.4959 3.94838 23.0766 4.54028C23.6441 5.1195 23.6749 5.88474 23.1778 6.54852C22.8523 6.98399 22.5091 7.40678 22.1484 7.81688C21.9768 8.01559 21.9944 8.17202 22.0516 8.42146C22.2803 9.38542 22.8962 9.7617 23.8817 9.70251C24.0797 9.68983 24.282 9.74902 24.4844 9.77438C25.4039 9.89276 25.9802 10.4973 25.9934 11.3852C26.0022 12.1166 26.0022 12.848 25.9934 13.5795C25.9846 14.5011 25.4171 15.11 24.4712 15.2283C23.9345 15.296 23.3978 15.3721 22.8611 15.4186C22.6235 15.4397 22.5399 15.5497 22.4211 15.7357C21.8932 16.5686 21.9548 17.2831 22.7423 17.9299C22.9446 18.0948 23.0898 18.3274 23.2394 18.5472C23.6485 19.1476 23.6265 19.8832 23.1294 20.399C22.5091 21.0417 21.8492 21.6505 21.1937 22.2635C20.9165 22.5172 20.5514 22.5933 20.2082 22.6144ZM8.40474 19.9255C8.45314 19.9424 8.54112 19.9551 8.61151 19.9889C9.22742 20.2976 9.86533 20.5555 10.5296 20.7542C10.8288 20.8429 10.9388 21.0586 10.9696 21.3418C11.0532 22.0352 11.1587 22.7286 11.2511 23.4219C11.2995 23.7729 11.5019 23.9377 11.8626 23.9377C12.6061 23.9377 13.354 23.9335 14.0975 23.942C14.5155 23.9462 14.7134 23.7559 14.7574 23.3628C14.8366 22.699 14.951 22.0437 15.0214 21.3799C15.0566 21.0247 15.2238 20.8091 15.5757 20.7161C16.1476 20.5639 16.6975 20.3483 17.2123 20.065C17.5378 19.8874 17.8062 19.9128 18.0921 20.1369C18.6289 20.5555 19.192 20.9529 19.7331 21.3672C20.0675 21.6251 20.3578 21.6251 20.6658 21.3207C21.1585 20.8303 21.66 20.3441 22.1748 19.8705C22.4871 19.5788 22.5091 19.2998 22.2363 18.9742C21.792 18.4415 21.3697 17.8919 20.9253 17.3592C20.723 17.114 20.6834 16.8772 20.8461 16.5982C21.1453 16.0866 21.3785 15.5497 21.5456 14.9831C21.6512 14.6195 21.8932 14.4715 22.2803 14.4377C22.971 14.3743 23.6529 14.2644 24.3436 14.1841C24.7308 14.1375 24.9068 13.9346 24.9068 13.5668C24.9024 12.8692 24.898 12.1674 24.9068 11.4698C24.9112 11.0808 24.7484 10.8609 24.3304 10.8144C23.6265 10.7341 22.9226 10.6284 22.2187 10.5565C21.8712 10.5227 21.6556 10.3663 21.5588 10.0492C21.3917 9.48689 21.1629 8.94149 20.8637 8.43415C20.6922 8.1382 20.7142 7.89298 20.9341 7.63085C21.3697 7.11083 21.7788 6.57389 22.2143 6.05386C22.5003 5.71563 22.5003 5.42813 22.1616 5.1195C21.66 4.65866 21.1673 4.18937 20.6878 3.70316C20.371 3.38184 20.0719 3.36493 19.7155 3.64397C19.1788 4.06253 18.6157 4.45995 18.0789 4.87428C17.8106 5.08145 17.551 5.1195 17.2431 4.95038C16.7283 4.66712 16.1828 4.4515 15.6109 4.29506C15.237 4.1936 15.0566 3.98643 15.017 3.60592C14.9466 2.92523 14.8366 2.253 14.7442 1.57654C14.6958 1.22563 14.4935 1.06074 14.1327 1.06074C13.3892 1.06074 12.6413 1.06497 11.8978 1.05652C11.4799 1.05229 11.2819 1.24254 11.2379 1.63151C11.1587 2.29528 11.0444 2.9506 10.974 3.61438C10.9388 3.96952 10.7716 4.18514 10.4197 4.28238C9.83014 4.44304 9.26702 4.66289 8.73909 4.95461C8.42674 5.12373 8.17158 5.06876 7.90321 4.8616C7.36209 4.44304 6.80337 4.04562 6.26225 3.63129C5.9279 3.37339 5.63754 3.36916 5.32959 3.6778C4.83686 4.16823 4.33533 4.65443 3.8206 5.12795C3.50825 5.41968 3.48185 5.69449 3.75461 6.02426C4.19895 6.55697 4.62129 7.1066 5.06562 7.63931C5.26799 7.88453 5.30759 8.12551 5.14481 8.40033C4.83686 8.92458 4.60369 9.48266 4.42772 10.0619C4.33093 10.3832 4.10656 10.5227 3.75901 10.5608C3.05511 10.6326 2.35122 10.7383 1.64732 10.8187C1.26017 10.8652 1.0842 11.0639 1.0842 11.4359C1.0886 12.1335 1.093 12.8354 1.0798 13.533C1.071 13.9557 1.27777 14.1545 1.70451 14.1967C2.39521 14.2686 3.07711 14.3785 3.76781 14.4462C4.11536 14.48 4.33093 14.6322 4.42772 14.9535C4.60369 15.5327 4.84126 16.0866 5.14481 16.6151C5.30759 16.8983 5.2548 17.1351 5.05243 17.3761C4.62129 17.8961 4.20775 18.4331 3.77221 18.9531C3.48625 19.2913 3.48185 19.5788 3.8206 19.8874C4.32213 20.3483 4.81486 20.8176 5.29439 21.3038C5.61115 21.6251 5.9103 21.6462 6.26665 21.3672C6.79017 20.9571 7.3313 20.5681 7.86802 20.1665C8.022 20.0481 8.17158 19.9382 8.40474 19.9255Z" fill="white"/>
<path d="M7.59086 12.5014C7.58646 9.6095 9.99731 7.29685 13.0065 7.30108C16.0156 7.30531 18.4133 9.62641 18.4045 12.5183C18.3957 15.389 16.0024 17.6847 13.0153 17.6932C10.0061 17.7016 7.59526 15.389 7.59086 12.5014ZM8.65991 12.4971C8.65991 14.776 10.6132 16.6574 12.9845 16.6658C15.3513 16.6743 17.3135 14.8055 17.3355 12.5225C17.3574 10.231 15.3689 8.32 12.9845 8.33268C10.6088 8.34114 8.65991 10.2183 8.65991 12.4971Z" fill="white"/>
</svg>
